<?xml version="1.0" encoding="UTF-8" standalone="no"?>
<!-- Created with Inkscape (http://www.inkscape.org/) -->

<svg
   xmlns:dc="http://purl.org/dc/elements/1.1/"
   xmlns:cc="http://creativecommons.org/ns#"
   xmlns:rdf="http://www.w3.org/1999/02/22-rdf-syntax-ns#"
   xmlns:svg="http://www.w3.org/2000/svg"
   xmlns="http://www.w3.org/2000/svg"
   xmlns:sodipodi="http://sodipodi.sourceforge.net/DTD/sodipodi-0.dtd"
   xmlns:inkscape="http://www.inkscape.org/namespaces/inkscape"
   width="400.00006"
   height="129.46112"
   viewBox="0 0 105.83335 34.253256"
   version="1.1"
   id="svg47016"
   inkscape:version="0.92.4 (5da689c313, 2019-01-14)"
   sodipodi:docname="Almirall Logo 2020.svg">
  <defs
     id="defs47010" />
  <sodipodi:namedview
     id="base"
     pagecolor="#ffffff"
     bordercolor="#666666"
     borderopacity="1.0"
     inkscape:pageopacity="0.0"
     inkscape:pageshadow="2"
     inkscape:zoom="2"
     inkscape:cx="272.19674"
     inkscape:cy="31.935756"
     inkscape:document-units="px"
     inkscape:current-layer="svg47016"
     showgrid="false"
     units="px"
     fit-margin-top="0"
     fit-margin-left="0"
     fit-margin-right="0"
     fit-margin-bottom="0"
     inkscape:window-width="1920"
     inkscape:window-height="1001"
     inkscape:window-x="-9"
     inkscape:window-y="-9"
     inkscape:window-maximized="1" />
  <metadata
     id="metadata47013">
    <rdf:RDF>
      <cc:Work
         rdf:about="">
        <dc:format>image/svg+xml</dc:format>
        <dc:type
           rdf:resource="http://purl.org/dc/dcmitype/StillImage" />
        <dc:title></dc:title>
      </cc:Work>
    </rdf:RDF>
  </metadata>
  <path
     inkscape:connector-curvature="0"
     id="path16891"
     d="m 23.767848,17.5081 c -0.0646,-0.21833 -0.31575,-0.31517 -0.50943,-0.21011 l -1.93295,1.06757 c -0.18605,0.0968 -0.26704,0.31575 -0.21011,0.51765 0.30753,1.15654 0.42844,2.3939 0.2911,3.67986 -0.46893,4.65048 -4.15707,8.33035 -8.6296,8.61341 -5.3782999,0.34803 -9.8508299,-4.10854 -9.8508299,-9.65668 0,-1.85208 0.50121,-3.57481 1.35873,-5.04676 l 0.0176,-0.54992 -1.14035,-2.15938 c -0.12149,-0.23476 -0.43665,-0.25883 -0.59852,-0.047 -1.73071,2.32119 -2.70127,5.28128 -2.54762,8.484 0.32339,6.5268 5.44303,11.79188 11.7029099,12.0426 6.95547,0.28289 12.67347,-5.5239 12.67347,-12.72194 0,-1.39917 -0.21833,-2.74986 -0.62276,-4.01152 M 6.9066081,22.32205 v 2.15134 l 10.6676799,-5.8555 c 0.75217,-0.41259 1.22128,-1.22122 1.22128,-2.11091 V 14.3557 L 8.1278281,20.21121 c -0.75211,0.41259 -1.22122,1.22122 -1.22122,2.11084 M 18.795568,7.1819 8.1278281,13.02931 c -0.75211,0.41259 -1.22122,1.22932 -1.22122,2.11894 v 2.15134 l 10.6676799,-5.8555 c 0.75217,-0.41259 1.22128,-1.22932 1.22128,-2.1109 z m -0.0352,-5.02245 V 0 L 8.0926981,5.85551 c -0.75217,0.41259 -1.22128,1.22932 -1.22128,2.11084 v 2.15944 L 17.539088,4.27029 c 0.75217,-0.41259 1.22122,-1.22932 1.22122,-2.11084"
     style="fill:#00f0be;fill-opacity:1;fill-rule:nonzero;stroke:none;stroke-width:2.07045341" />
  <path
     inkscape:connector-curvature="0"
     id="path16893"
     d="m 70.223646,28.53971 h 2.935851 V 17.11987 H 70.223646 Z M 62.815322,16.88534 c -1.625655,0 -3.000586,0.82495 -3.88211,1.78735 -0.857344,-1.08371 -2.18368,-1.78735 -3.671824,-1.78735 -1.059531,0 -2.094706,0.35566 -2.95205,1.15655 v -0.92202 h -2.822579 v 11.41984 h 2.935792 v -7.41642 c 0.404375,-0.54171 1.310255,-1.41537 2.547675,-1.41537 0.558143,0 1.196983,0.19426 1.641795,0.71173 0.339815,0.39616 0.541709,0.91392 0.541709,1.94916 v 6.1709 h 2.927752 v -6.04959 c 0,-0.47715 -0.04108,-0.89772 -0.08921,-1.27786 0.387941,-0.5822 1.374931,-1.50434 2.636591,-1.50434 0.566358,0 1.196983,0.19426 1.649893,0.71173 0.331599,0.39616 0.541709,0.91392 0.541709,1.94916 v 6.1709 h 2.927752 v -6.04959 c 0,-1.69843 -0.404374,-2.87117 -1.108009,-3.7689 -0.873483,-1.13224 -2.32119,-1.83588 -3.825474,-1.83588 M 43.857152,28.53971 h 2.927693 V 12.06507 l -2.927693,0.79261 z M 38.333188,18.04189 c -0.85728,-0.72794 -1.95719,-1.15655 -3.20271,-1.15655 -2.96819,0 -5.36216,2.58805 -5.36216,5.95252 0,1.55288 0.54171,2.96819 1.39917,4.00342 0.97056,1.17275 2.49914,1.93302 4.12474,1.93302 1.09997,0 2.14324,-0.35567 3.04096,-1.15661 v 0.92202 h 2.814539 V 17.11987 h -2.814539 z m -0.11327,6.4944 c -0.55814,0.84114 -1.52858,1.40727 -2.63659,1.40727 -1.6418,0 -2.88731,-1.3183 -2.88731,-3.1057 0,-1.6418 1.108,-3.12994 2.82257,-3.12994 1.12421,0 2.09477,0.56636 2.70133,1.41537 z M 71.686846,11.40187 c -1.059472,0 -1.908717,0.84919 -1.908717,1.9572 0,1.09997 0.849245,1.94915 1.908717,1.94915 1.067571,0 1.916757,-0.84918 1.916757,-1.94915 0,-1.10801 -0.849186,-1.9572 -1.916757,-1.9572 m 25.589495,17.13784 h 2.927749 V 12.06507 l -2.927749,0.79261 z M 91.752436,18.04189 c -0.857285,-0.72794 -1.965294,-1.15655 -3.202714,-1.15655 -2.976289,0 -5.362155,2.58805 -5.362155,5.95252 0,1.55288 0.541709,2.96819 1.391071,4.00342 0.970556,1.17275 2.507179,1.93302 4.132834,1.93302 1.099909,0 2.135143,-0.35567 3.040964,-1.15661 v 0.92202 h 2.814539 V 17.11987 h -2.814539 z m -0.113271,6.4944 c -0.566359,0.84114 -1.536623,1.40727 -2.636591,1.40727 -1.649894,0 -2.887314,-1.3183 -2.887314,-3.1057 0,-1.6418 1.108067,-3.12994 2.822638,-3.12994 1.124207,0 2.094705,0.56636 2.701267,1.41537 z M 78.674598,18.27641 v -1.15654 h -2.81448 v 11.41984 h 2.927752 v -7.1819 c 0.363878,-0.67933 1.374873,-1.64989 2.66083,-1.64989 0.428437,0 0.857285,0.047 1.059472,0.12149 l 0.339815,-2.84688 c -0.315752,-0.0469 -0.566359,-0.0968 -0.994796,-0.0968 -1.326394,0 -2.523377,0.54171 -3.178475,1.39107 M 102.90554,12.85807 V 28.5401 h 2.92781 V 12.06546 Z m 0,0"
     style="fill:#002855;fill-opacity:1;fill-rule:nonzero;stroke:none;stroke-width:2.07045341" />
</svg>
