<svg width="150px" id="Layer_1" data-name="Gracell Logo" version="1.1" xmlns="http://www.w3.org/2000/svg" xmlns:xlink="http://www.w3.org/1999/xlink" x="0px" y="0px" viewbox="0 0 192.7 100.6" style="enable-background:new 0 0 192.7 100.6;" xml:space="preserve"><style type="text/css">
  .st01{fill:#040000;}
  .st11{fill:#C8C9C8;}
  .st21{fill:#D83017;}
  .st31{fill:#787874;}
  .st41{fill:#1E0305;}
</style>
<g><g><rect x="74.6" y="35.5" class="st11" width="109.1" height="2.7"></rect><path class="st21" d="M39.6,35.5H11.1l19,7.1c0,0,1.9,0.6,3.3,2.5c1.4,1.9,1.7,3.6,1.7,3.6l4.6,19.2l4.6-19.2c0,0,0.3-1.8,1.7-3.6
      c1.4-1.9,3.3-2.5,3.3-2.5l19-7.1H39.6z"></path><circle class="st21" cx="40.1" cy="28.2" r="4.3"></circle><g><path class="st31" d="M93.6,46.5c-1.2,0.5-3.6,1.1-6.2,1.1c-9.5,0-10.7-7.5-10.7-11c0-7.1,4.7-11.3,11.2-11.3c2.1,0,4,0.4,5.1,0.9
        l-0.7,2.7c-1-0.5-2.3-0.8-4.3-0.8c-4.5,0-7.7,2.8-7.7,8.4c0,5.5,3,8.4,7.3,8.4c1.4,0,2.4-0.2,2.9-0.5v-6.2h-3.8v-2.7h7V46.5z"></path><path class="st31" d="M106.9,37c1.6,0.6,2.5,2.1,3.1,4.5c0.7,2.9,1.2,5.1,1.6,6h-3.4c-0.3-0.6-0.8-2.5-1.4-5.2
        c-0.6-2.9-1.7-3.9-4-3.9h-2v9.2h-3.3V25.8c1.4-0.3,3.3-0.5,5.3-0.5c2.9,0,4.9,0.5,6.2,1.7c1.1,1,1.7,2.5,1.7,4.3
        C110.8,34.2,109.1,36.1,106.9,37L106.9,37z M103.1,35.5c2.7,0,4.5-1.4,4.5-3.8c0-2.8-2-3.8-4.4-3.8c-1.1,0-1.9,0.1-2.3,0.2v7.4
        H103.1z"></path><path class="st31" d="M119,38.3l-2.6,9.1H113l6.7-21.9h4.1l6.7,21.9h-3.5l-2.7-9.1H119z M123.6,35.5l-0.8-2.8
        c-0.4-1.4-0.8-3-1.1-4.3h-0.1c-0.3,1.3-0.7,2.9-1,4.3l-0.9,2.8H123.6z"></path><path class="st31" d="M147.6,46.8c-0.9,0.5-2.8,0.9-5.1,0.9c-6.1,0-10.2-4-10.2-11c0-7.4,4.7-11.5,10.8-11.5
        c2.5,0,4.1,0.5,4.7,0.9l-0.7,2.7c-0.9-0.4-2.2-0.8-3.8-0.8c-4.2,0-7.4,2.9-7.4,8.6c0,5.4,2.8,8.4,7.3,8.4c1.5,0,3-0.3,3.9-0.8
        L147.6,46.8z"></path><path class="st31" d="M162.8,47.4h-11.9V25.5h11.4v2.8h-8.1v7.2h7.7v2.7h-7.7v6.4h8.6V47.4z"></path><path class="st31" d="M178,47.4h-11.8V25.5h3.3v19.1h8.4V47.4z"></path><path class="st31" d="M192.7,47.4h-11.8V25.5h3.3v19.1h8.4V47.4z"></path></g><path class="st31" d="M68,35.5c0.1,0.8,0.1,1.5,0.1,2.3C68.1,54.5,54.6,68,37.9,68C21.2,68,7.7,54.5,7.7,37.8S21.2,7.6,37.9,7.6
      c13.8,0,25.5,9.3,29.1,22l7.2-2.4C69.6,11.5,55.1,0,37.9,0C17,0,0.1,16.9,0.1,37.8S17,75.6,37.9,75.6s37.8-16.9,37.8-37.8
      c0-0.8,0-1.5-0.1-2.3H68z"></path></g><rect x="0.1" y="83" class="st01" width="192.6" height="0.6"></rect><g><path class="st41" d="M3.1,90.3h1.5l3.1,8.1H6.2l-0.8-2.2H2.2l-0.8,2.2H0L3.1,90.3z M2.6,95.2h2.5l-1.2-3.5h0L2.6,95.2z"></path><path class="st41" d="M11.5,92.6h1.2v0.8h0c0.1-0.1,0.2-0.3,0.3-0.4c0.1-0.1,0.2-0.2,0.4-0.3c0.1-0.1,0.3-0.1,0.5-0.2
      c0.2,0,0.4-0.1,0.6-0.1c0.4,0,0.7,0.1,1,0.2s0.5,0.4,0.7,0.7c0.2-0.3,0.5-0.5,0.8-0.7c0.3-0.2,0.6-0.3,1.1-0.3
      c0.6,0,1.1,0.2,1.5,0.5c0.3,0.3,0.5,0.8,0.5,1.5v4.1h-1.3V95c0-0.2,0-0.4,0-0.6c0-0.2-0.1-0.4-0.1-0.5c-0.1-0.1-0.2-0.2-0.3-0.3
      c-0.1-0.1-0.3-0.1-0.6-0.1c-0.4,0-0.8,0.1-1,0.4c-0.2,0.3-0.3,0.7-0.3,1.2v3.4h-1.3v-3.8c0-0.4-0.1-0.7-0.2-0.9
      c-0.1-0.2-0.4-0.3-0.8-0.3c-0.2,0-0.3,0-0.5,0.1c-0.2,0.1-0.3,0.2-0.4,0.3c-0.1,0.1-0.2,0.3-0.3,0.5c-0.1,0.2-0.1,0.4-0.1,0.6v3.5
      h-1.3V92.6z"></path><path class="st41" d="M22.4,95.8c0,0.2,0,0.4,0.1,0.7c0.1,0.2,0.2,0.4,0.3,0.6c0.1,0.2,0.3,0.3,0.5,0.4c0.2,0.1,0.4,0.1,0.7,0.1
      c0.4,0,0.7-0.1,0.9-0.2c0.2-0.2,0.4-0.4,0.5-0.7h1.2c-0.1,0.3-0.2,0.6-0.4,0.9c-0.2,0.3-0.4,0.5-0.6,0.6c-0.2,0.2-0.5,0.3-0.8,0.4
      c-0.3,0.1-0.6,0.1-0.9,0.1c-0.5,0-0.9-0.1-1.2-0.2c-0.4-0.2-0.7-0.4-0.9-0.6c-0.2-0.3-0.4-0.6-0.6-1c-0.1-0.4-0.2-0.8-0.2-1.3
      c0-0.4,0.1-0.8,0.2-1.2c0.1-0.4,0.3-0.7,0.6-1c0.2-0.3,0.5-0.5,0.9-0.7c0.3-0.2,0.7-0.3,1.2-0.3c0.5,0,0.9,0.1,1.2,0.3
      c0.4,0.2,0.7,0.4,0.9,0.8c0.2,0.3,0.4,0.7,0.5,1.1c0.1,0.4,0.1,0.8,0.1,1.3H22.4z M25.4,95c0-0.2-0.1-0.4-0.1-0.6
      c-0.1-0.2-0.2-0.4-0.3-0.5c-0.1-0.1-0.3-0.3-0.5-0.3c-0.2-0.1-0.4-0.1-0.6-0.1c-0.2,0-0.4,0-0.6,0.1c-0.2,0.1-0.3,0.2-0.5,0.3
      c-0.1,0.1-0.2,0.3-0.3,0.5c-0.1,0.2-0.1,0.4-0.1,0.6H25.4z"></path><path class="st41" d="M27.7,92.6H29v0.8h0c0.1-0.1,0.2-0.3,0.3-0.4c0.1-0.1,0.2-0.2,0.4-0.3c0.1-0.1,0.3-0.1,0.5-0.2
      c0.2,0,0.4-0.1,0.6-0.1c0.4,0,0.7,0.1,1,0.2c0.3,0.2,0.5,0.4,0.7,0.7c0.2-0.3,0.5-0.5,0.8-0.7c0.3-0.2,0.6-0.3,1.1-0.3
      c0.6,0,1.1,0.2,1.5,0.5c0.3,0.3,0.5,0.8,0.5,1.5v4.1H35V95c0-0.2,0-0.4,0-0.6c0-0.2-0.1-0.4-0.1-0.5c-0.1-0.1-0.2-0.2-0.3-0.3
      c-0.1-0.1-0.3-0.1-0.6-0.1c-0.4,0-0.8,0.1-1,0.4c-0.2,0.3-0.3,0.7-0.3,1.2v3.4h-1.3v-3.8c0-0.4-0.1-0.7-0.2-0.9
      c-0.1-0.2-0.4-0.3-0.8-0.3c-0.2,0-0.3,0-0.5,0.1c-0.2,0.1-0.3,0.2-0.4,0.3c-0.1,0.1-0.2,0.3-0.3,0.5C29.1,94.5,29,94.7,29,95v3.5
      h-1.3V92.6z"></path><path class="st41" d="M37.7,90.3H39v3h0c0.1-0.1,0.2-0.3,0.3-0.4c0.1-0.1,0.3-0.2,0.4-0.3c0.2-0.1,0.3-0.1,0.5-0.2
      c0.2,0,0.3-0.1,0.5-0.1c0.5,0,0.9,0.1,1.2,0.2c0.3,0.2,0.6,0.4,0.9,0.7c0.2,0.3,0.4,0.6,0.5,1c0.1,0.4,0.2,0.8,0.2,1.2
      c0,0.4-0.1,0.8-0.2,1.1c-0.1,0.4-0.3,0.7-0.5,1c-0.2,0.3-0.5,0.5-0.8,0.7c-0.3,0.2-0.7,0.3-1.1,0.3c-0.2,0-0.4,0-0.6,0
      c-0.2,0-0.4-0.1-0.6-0.2c-0.2-0.1-0.3-0.2-0.5-0.3c-0.1-0.1-0.3-0.3-0.4-0.5h0v0.8h-1.2V90.3z M42.2,95.5c0-0.3,0-0.5-0.1-0.8
      c-0.1-0.3-0.2-0.5-0.3-0.7c-0.1-0.2-0.3-0.3-0.5-0.5c-0.2-0.1-0.4-0.2-0.7-0.2c-0.5,0-1,0.2-1.2,0.6c-0.3,0.4-0.4,0.9-0.4,1.5
      c0,0.3,0,0.6,0.1,0.8c0.1,0.3,0.2,0.5,0.3,0.7c0.1,0.2,0.3,0.3,0.5,0.4c0.2,0.1,0.4,0.2,0.7,0.2c0.3,0,0.5-0.1,0.8-0.2
      c0.2-0.1,0.4-0.3,0.5-0.5c0.1-0.2,0.2-0.4,0.3-0.7C42.2,96,42.2,95.8,42.2,95.5z"></path><path class="st41" d="M45.6,95.8c0,0.2,0,0.4,0.1,0.7c0.1,0.2,0.2,0.4,0.3,0.6c0.1,0.2,0.3,0.3,0.5,0.4c0.2,0.1,0.4,0.1,0.7,0.1
      c0.4,0,0.7-0.1,0.9-0.2c0.2-0.2,0.4-0.4,0.5-0.7h1.2c-0.1,0.3-0.2,0.6-0.4,0.9c-0.2,0.3-0.4,0.5-0.6,0.6c-0.2,0.2-0.5,0.3-0.8,0.4
      c-0.3,0.1-0.6,0.1-0.9,0.1c-0.5,0-0.9-0.1-1.2-0.2c-0.4-0.2-0.7-0.4-0.9-0.6c-0.2-0.3-0.4-0.6-0.6-1c-0.1-0.4-0.2-0.8-0.2-1.3
      c0-0.4,0.1-0.8,0.2-1.2c0.1-0.4,0.3-0.7,0.6-1c0.2-0.3,0.5-0.5,0.9-0.7c0.3-0.2,0.7-0.3,1.2-0.3c0.5,0,0.9,0.1,1.2,0.3
      c0.4,0.2,0.7,0.4,0.9,0.8c0.2,0.3,0.4,0.7,0.5,1.1c0.1,0.4,0.1,0.8,0.1,1.3H45.6z M48.6,95c0-0.2-0.1-0.4-0.1-0.6
      c-0.1-0.2-0.2-0.4-0.3-0.5c-0.1-0.1-0.3-0.3-0.5-0.3c-0.2-0.1-0.4-0.1-0.6-0.1c-0.2,0-0.4,0-0.6,0.1c-0.2,0.1-0.3,0.2-0.5,0.3
      c-0.1,0.1-0.2,0.3-0.3,0.5c-0.1,0.2-0.1,0.4-0.1,0.6H48.6z"></path><path class="st41" d="M50.9,92.6h1.2v1.1h0c0-0.2,0.1-0.3,0.2-0.5c0.1-0.2,0.2-0.3,0.4-0.4c0.2-0.1,0.3-0.2,0.5-0.3
      c0.2-0.1,0.4-0.1,0.6-0.1c0.2,0,0.3,0,0.3,0c0.1,0,0.1,0,0.2,0v1.3c-0.1,0-0.2,0-0.3,0c-0.1,0-0.2,0-0.3,0c-0.2,0-0.4,0-0.6,0.1
      c-0.2,0.1-0.4,0.2-0.5,0.4c-0.1,0.2-0.3,0.4-0.3,0.6c-0.1,0.3-0.1,0.5-0.1,0.9v2.8h-1.3V92.6z"></path><path class="st41" d="M60.8,98.6c-0.5,0-0.9-0.1-1.3-0.2c-0.4-0.2-0.7-0.4-0.9-0.6c-0.3-0.3-0.4-0.6-0.6-1
      c-0.1-0.4-0.2-0.8-0.2-1.3c0-0.4,0.1-0.9,0.2-1.2c0.1-0.4,0.3-0.7,0.6-1c0.3-0.3,0.6-0.5,0.9-0.6c0.4-0.2,0.8-0.2,1.3-0.2
      c0.5,0,0.9,0.1,1.3,0.2c0.4,0.2,0.7,0.4,0.9,0.6c0.3,0.3,0.4,0.6,0.6,1c0.1,0.4,0.2,0.8,0.2,1.2c0,0.5-0.1,0.9-0.2,1.3
      c-0.1,0.4-0.3,0.7-0.6,1c-0.3,0.3-0.6,0.5-0.9,0.6C61.7,98.5,61.2,98.6,60.8,98.6z M60.8,97.6c0.3,0,0.5-0.1,0.8-0.2
      c0.2-0.1,0.4-0.3,0.5-0.5c0.1-0.2,0.2-0.4,0.3-0.7c0.1-0.2,0.1-0.5,0.1-0.8c0-0.3,0-0.5-0.1-0.8c-0.1-0.3-0.2-0.5-0.3-0.7
      c-0.1-0.2-0.3-0.4-0.5-0.5c-0.2-0.1-0.5-0.2-0.8-0.2c-0.3,0-0.5,0.1-0.8,0.2c-0.2,0.1-0.4,0.3-0.5,0.5c-0.1,0.2-0.2,0.4-0.3,0.7
      c-0.1,0.3-0.1,0.5-0.1,0.8c0,0.3,0,0.5,0.1,0.8c0.1,0.2,0.2,0.5,0.3,0.7c0.1,0.2,0.3,0.4,0.5,0.5C60.2,97.5,60.5,97.6,60.8,97.6z"></path><path class="st41" d="M64.2,92.6h1v-0.5c0-0.4,0-0.7,0.1-0.9c0.1-0.2,0.2-0.4,0.4-0.5c0.2-0.1,0.3-0.2,0.5-0.3
      c0.2,0,0.4-0.1,0.6-0.1c0.4,0,0.7,0,0.9,0.1v1c-0.1,0-0.2,0-0.3-0.1c-0.1,0-0.2,0-0.3,0c-0.2,0-0.3,0-0.4,0.1
      c-0.1,0.1-0.2,0.2-0.2,0.5v0.6h1.1v1h-1.1v4.9h-1.3v-4.9h-1V92.6z"></path><path class="st41" d="M71,92.6h1v-1.8h1.3v1.8h1.2v1h-1.2v3.1c0,0.1,0,0.3,0,0.4c0,0.1,0,0.2,0.1,0.3c0,0.1,0.1,0.1,0.2,0.2
      c0.1,0,0.2,0.1,0.3,0.1c0.1,0,0.2,0,0.3,0c0.1,0,0.2,0,0.3,0v1c-0.1,0-0.3,0-0.4,0c-0.1,0-0.3,0-0.4,0c-0.3,0-0.6,0-0.8-0.1
      c-0.2-0.1-0.4-0.2-0.5-0.3c-0.1-0.1-0.2-0.3-0.2-0.5c0-0.2-0.1-0.4-0.1-0.6v-3.5h-1V92.6z"></path><path class="st41" d="M75.4,90.3h1.3v3h0c0.2-0.3,0.4-0.5,0.7-0.7c0.3-0.2,0.7-0.3,1.1-0.3c0.6,0,1.2,0.2,1.5,0.5
      c0.4,0.3,0.6,0.8,0.6,1.5v4h-1.3v-3.7c0-0.5-0.1-0.8-0.3-1c-0.2-0.2-0.5-0.3-0.9-0.3c-0.2,0-0.4,0-0.6,0.1
      c-0.2,0.1-0.3,0.2-0.4,0.3c-0.1,0.1-0.2,0.3-0.3,0.5c-0.1,0.2-0.1,0.4-0.1,0.6v3.5h-1.3V90.3z"></path><path class="st41" d="M82.9,95.8c0,0.2,0,0.4,0.1,0.7c0.1,0.2,0.2,0.4,0.3,0.6c0.1,0.2,0.3,0.3,0.5,0.4c0.2,0.1,0.4,0.1,0.7,0.1
      c0.4,0,0.7-0.1,0.9-0.2c0.2-0.2,0.4-0.4,0.5-0.7h1.2c-0.1,0.3-0.2,0.6-0.4,0.9c-0.2,0.3-0.4,0.5-0.6,0.6c-0.2,0.2-0.5,0.3-0.8,0.4
      c-0.3,0.1-0.6,0.1-0.9,0.1c-0.5,0-0.9-0.1-1.2-0.2c-0.4-0.2-0.7-0.4-0.9-0.6c-0.2-0.3-0.4-0.6-0.6-1c-0.1-0.4-0.2-0.8-0.2-1.3
      c0-0.4,0.1-0.8,0.2-1.2c0.1-0.4,0.3-0.7,0.6-1c0.2-0.3,0.5-0.5,0.9-0.7c0.3-0.2,0.7-0.3,1.2-0.3c0.5,0,0.9,0.1,1.2,0.3
      c0.4,0.2,0.7,0.4,0.9,0.8c0.2,0.3,0.4,0.7,0.5,1.1c0.1,0.4,0.1,0.8,0.1,1.3H82.9z M85.9,95c0-0.2-0.1-0.4-0.1-0.6
      c-0.1-0.2-0.2-0.4-0.3-0.5c-0.1-0.1-0.3-0.3-0.5-0.3c-0.2-0.1-0.4-0.1-0.6-0.1c-0.2,0-0.4,0-0.6,0.1c-0.2,0.1-0.3,0.2-0.5,0.3
      c-0.1,0.1-0.2,0.3-0.3,0.5c-0.1,0.2-0.1,0.4-0.1,0.6H85.9z"></path><path class="st41" d="M93.7,90.3h1.5l3.1,8.1h-1.5l-0.8-2.2h-3.2l-0.8,2.2h-1.5L93.7,90.3z M93.2,95.2h2.5l-1.2-3.5h0L93.2,95.2z"></path><path class="st41" d="M99.9,96.6c0,0.4,0.2,0.6,0.4,0.8c0.3,0.2,0.5,0.2,0.9,0.2c0.1,0,0.3,0,0.4,0c0.2,0,0.3-0.1,0.4-0.1
      c0.1-0.1,0.2-0.1,0.3-0.2c0.1-0.1,0.1-0.2,0.1-0.4c0-0.2-0.1-0.3-0.2-0.4c-0.1-0.1-0.3-0.2-0.4-0.3c-0.2-0.1-0.4-0.1-0.6-0.2
      c-0.2,0-0.5-0.1-0.7-0.1c-0.2-0.1-0.5-0.1-0.7-0.2c-0.2-0.1-0.4-0.2-0.6-0.3c-0.2-0.1-0.3-0.3-0.4-0.5c-0.1-0.2-0.2-0.4-0.2-0.7
      c0-0.3,0.1-0.6,0.2-0.8c0.2-0.2,0.4-0.4,0.6-0.5c0.2-0.1,0.5-0.2,0.8-0.3c0.3-0.1,0.6-0.1,0.8-0.1c0.3,0,0.6,0,0.9,0.1
      c0.3,0.1,0.5,0.2,0.8,0.3c0.2,0.1,0.4,0.3,0.6,0.6c0.1,0.2,0.2,0.5,0.3,0.8h-1.4c-0.1-0.3-0.2-0.5-0.4-0.6
      c-0.2-0.1-0.5-0.2-0.8-0.2c-0.1,0-0.2,0-0.3,0c-0.1,0-0.2,0-0.4,0.1c-0.1,0-0.2,0.1-0.3,0.2c-0.1,0.1-0.1,0.2-0.1,0.3
      c0,0.2,0.1,0.3,0.2,0.4c0.1,0.1,0.3,0.2,0.4,0.2c0.2,0.1,0.4,0.1,0.6,0.2c0.2,0,0.5,0.1,0.7,0.1c0.2,0.1,0.5,0.1,0.7,0.2
      c0.2,0.1,0.4,0.2,0.6,0.3c0.2,0.1,0.3,0.3,0.4,0.5c0.1,0.2,0.2,0.4,0.2,0.7c0,0.3-0.1,0.6-0.2,0.9c-0.2,0.2-0.4,0.4-0.6,0.6
      c-0.3,0.2-0.5,0.3-0.8,0.3c-0.3,0.1-0.6,0.1-0.9,0.1c-0.4,0-0.7,0-1-0.1c-0.3-0.1-0.6-0.2-0.8-0.4c-0.2-0.2-0.4-0.4-0.5-0.6
      c-0.1-0.3-0.2-0.6-0.2-0.9H99.9z"></path><path class="st41" d="M104.3,92.6h1v-1.8h1.3v1.8h1.2v1h-1.2v3.1c0,0.1,0,0.3,0,0.4c0,0.1,0,0.2,0.1,0.3c0,0.1,0.1,0.1,0.2,0.2
      c0.1,0,0.2,0.1,0.3,0.1c0.1,0,0.2,0,0.3,0c0.1,0,0.2,0,0.3,0v1c-0.1,0-0.3,0-0.4,0c-0.1,0-0.3,0-0.4,0c-0.3,0-0.6,0-0.8-0.1
      s-0.4-0.2-0.5-0.3c-0.1-0.1-0.2-0.3-0.2-0.5c0-0.2-0.1-0.4-0.1-0.6v-3.5h-1V92.6z"></path><path class="st41" d="M108.7,92.6h1.2v1.1h0c0-0.2,0.1-0.3,0.2-0.5c0.1-0.2,0.2-0.3,0.4-0.4c0.2-0.1,0.3-0.2,0.5-0.3
      c0.2-0.1,0.4-0.1,0.6-0.1c0.2,0,0.3,0,0.3,0c0.1,0,0.1,0,0.2,0v1.3c-0.1,0-0.2,0-0.3,0c-0.1,0-0.2,0-0.3,0c-0.2,0-0.4,0-0.6,0.1
      c-0.2,0.1-0.4,0.2-0.5,0.4c-0.1,0.2-0.3,0.4-0.3,0.6c-0.1,0.3-0.1,0.5-0.1,0.9v2.8h-1.3V92.6z"></path><path class="st41" d="M117.6,97.1c0,0.2,0,0.3,0.1,0.3c0,0.1,0.1,0.1,0.2,0.1c0,0,0.1,0,0.1,0s0.1,0,0.2,0v0.9c0,0-0.1,0-0.2,0.1
      c-0.1,0-0.1,0-0.2,0.1c-0.1,0-0.2,0-0.2,0c-0.1,0-0.1,0-0.2,0c-0.3,0-0.5-0.1-0.7-0.2c-0.2-0.1-0.3-0.3-0.3-0.6
      c-0.3,0.3-0.6,0.4-0.9,0.5c-0.4,0.1-0.7,0.2-1.1,0.2c-0.3,0-0.5,0-0.8-0.1c-0.2-0.1-0.5-0.2-0.6-0.3c-0.2-0.1-0.3-0.3-0.4-0.5
      c-0.1-0.2-0.2-0.5-0.2-0.8c0-0.4,0.1-0.7,0.2-0.9c0.1-0.2,0.3-0.4,0.5-0.5c0.2-0.1,0.5-0.2,0.7-0.3c0.3-0.1,0.5-0.1,0.8-0.1
      c0.2,0,0.5-0.1,0.7-0.1c0.2,0,0.4-0.1,0.6-0.1c0.2,0,0.3-0.1,0.4-0.2c0.1-0.1,0.1-0.2,0.1-0.4c0-0.2,0-0.3-0.1-0.4
      c-0.1-0.1-0.2-0.2-0.3-0.2c-0.1-0.1-0.2-0.1-0.4-0.1c-0.1,0-0.3,0-0.4,0c-0.4,0-0.7,0.1-0.9,0.2c-0.2,0.2-0.4,0.4-0.4,0.7h-1.3
      c0-0.4,0.1-0.7,0.3-0.9c0.2-0.3,0.4-0.5,0.6-0.6c0.2-0.2,0.5-0.3,0.8-0.3c0.3-0.1,0.6-0.1,1-0.1c0.3,0,0.6,0,0.9,0.1
      c0.3,0.1,0.5,0.2,0.8,0.3c0.2,0.1,0.4,0.3,0.5,0.5c0.1,0.2,0.2,0.5,0.2,0.8V97.1z M116.3,95.5c-0.2,0.1-0.4,0.2-0.7,0.2
      c-0.3,0-0.6,0.1-0.9,0.1c-0.1,0-0.3,0.1-0.4,0.1c-0.1,0-0.2,0.1-0.3,0.2c-0.1,0.1-0.2,0.2-0.2,0.3c-0.1,0.1-0.1,0.3-0.1,0.4
      c0,0.1,0,0.3,0.1,0.4c0.1,0.1,0.2,0.2,0.3,0.2c0.1,0.1,0.2,0.1,0.4,0.1c0.1,0,0.3,0,0.4,0c0.1,0,0.3,0,0.5-0.1
      c0.2,0,0.3-0.1,0.5-0.2c0.1-0.1,0.3-0.2,0.4-0.3c0.1-0.1,0.1-0.3,0.1-0.5V95.5z"></path><path class="st41" d="M118.9,90.3h6.2v1.1l-4.7,5.8h4.8v1.2h-6.7v-1.2l4.7-5.7h-4.4V90.3z"></path><path class="st41" d="M127.2,95.8c0,0.2,0,0.4,0.1,0.7c0.1,0.2,0.2,0.4,0.3,0.6c0.1,0.2,0.3,0.3,0.5,0.4c0.2,0.1,0.4,0.1,0.7,0.1
      c0.4,0,0.7-0.1,0.9-0.2c0.2-0.2,0.4-0.4,0.5-0.7h1.2c-0.1,0.3-0.2,0.6-0.4,0.9c-0.2,0.3-0.4,0.5-0.6,0.6c-0.2,0.2-0.5,0.3-0.8,0.4
      c-0.3,0.1-0.6,0.1-0.9,0.1c-0.5,0-0.9-0.1-1.2-0.2c-0.4-0.2-0.7-0.4-0.9-0.6c-0.2-0.3-0.4-0.6-0.6-1c-0.1-0.4-0.2-0.8-0.2-1.3
      c0-0.4,0.1-0.8,0.2-1.2c0.1-0.4,0.3-0.7,0.6-1c0.2-0.3,0.5-0.5,0.9-0.7c0.3-0.2,0.7-0.3,1.2-0.3c0.5,0,0.9,0.1,1.2,0.3
      c0.4,0.2,0.7,0.4,0.9,0.8c0.2,0.3,0.4,0.7,0.5,1.1c0.1,0.4,0.1,0.8,0.1,1.3H127.2z M130.2,95c0-0.2-0.1-0.4-0.1-0.6
      c-0.1-0.2-0.2-0.4-0.3-0.5c-0.1-0.1-0.3-0.3-0.5-0.3c-0.2-0.1-0.4-0.1-0.6-0.1c-0.2,0-0.4,0-0.6,0.1c-0.2,0.1-0.3,0.2-0.5,0.3
      c-0.1,0.1-0.2,0.3-0.3,0.5c-0.1,0.2-0.1,0.4-0.1,0.6H130.2z"></path><path class="st41" d="M132.5,92.6h1.2v0.9l0,0c0.2-0.3,0.5-0.6,0.8-0.8s0.7-0.3,1.1-0.3c0.6,0,1.2,0.2,1.5,0.5
      c0.4,0.3,0.6,0.8,0.6,1.5v4h-1.3v-3.7c0-0.5-0.1-0.8-0.3-1c-0.2-0.2-0.5-0.3-0.9-0.3c-0.2,0-0.4,0-0.6,0.1
      c-0.2,0.1-0.3,0.2-0.4,0.3c-0.1,0.1-0.2,0.3-0.3,0.5c-0.1,0.2-0.1,0.4-0.1,0.6v3.5h-1.3V92.6z"></path><path class="st41" d="M140,95.8c0,0.2,0,0.4,0.1,0.7c0.1,0.2,0.2,0.4,0.3,0.6c0.1,0.2,0.3,0.3,0.5,0.4c0.2,0.1,0.4,0.1,0.7,0.1
      c0.4,0,0.7-0.1,0.9-0.2c0.2-0.2,0.4-0.4,0.5-0.7h1.2c-0.1,0.3-0.2,0.6-0.4,0.9c-0.2,0.3-0.4,0.5-0.6,0.6c-0.2,0.2-0.5,0.3-0.8,0.4
      c-0.3,0.1-0.6,0.1-0.9,0.1c-0.5,0-0.9-0.1-1.2-0.2c-0.4-0.2-0.7-0.4-0.9-0.6c-0.2-0.3-0.4-0.6-0.6-1c-0.1-0.4-0.2-0.8-0.2-1.3
      c0-0.4,0.1-0.8,0.2-1.2c0.1-0.4,0.3-0.7,0.6-1c0.2-0.3,0.5-0.5,0.9-0.7c0.3-0.2,0.7-0.3,1.2-0.3c0.5,0,0.9,0.1,1.2,0.3
      c0.4,0.2,0.7,0.4,0.9,0.8c0.2,0.3,0.4,0.7,0.5,1.1c0.1,0.4,0.1,0.8,0.1,1.3H140z M143,95c0-0.2-0.1-0.4-0.1-0.6
      c-0.1-0.2-0.2-0.4-0.3-0.5c-0.1-0.1-0.3-0.3-0.5-0.3c-0.2-0.1-0.4-0.1-0.6-0.1c-0.2,0-0.4,0-0.6,0.1c-0.2,0.1-0.3,0.2-0.5,0.3
      c-0.1,0.1-0.2,0.3-0.3,0.5c-0.1,0.2-0.1,0.4-0.1,0.6H143z"></path><path class="st41" d="M149.3,94.5c-0.1-0.4-0.2-0.6-0.4-0.8c-0.2-0.2-0.5-0.3-0.9-0.3c-0.2,0-0.3,0-0.5,0.1
      c-0.2,0.1-0.4,0.2-0.5,0.3c-0.2,0.2-0.3,0.4-0.4,0.6s-0.2,0.6-0.2,1.1c0,0.2,0,0.5,0.1,0.7c0.1,0.2,0.1,0.5,0.3,0.6
      c0.1,0.2,0.3,0.3,0.5,0.5c0.2,0.1,0.4,0.2,0.7,0.2c0.4,0,0.7-0.1,0.9-0.4c0.2-0.2,0.4-0.6,0.5-1h1.3c-0.1,0.8-0.4,1.4-0.9,1.8
      c-0.5,0.4-1.1,0.6-1.8,0.6c-0.5,0-0.9-0.1-1.2-0.2c-0.4-0.2-0.7-0.4-0.9-0.6c-0.2-0.3-0.4-0.6-0.6-1c-0.1-0.4-0.2-0.8-0.2-1.2
      c0-0.4,0.1-0.9,0.2-1.2c0.1-0.4,0.3-0.7,0.5-1c0.2-0.3,0.5-0.5,0.9-0.7c0.4-0.2,0.8-0.2,1.3-0.2c0.3,0,0.7,0,1,0.1
      c0.3,0.1,0.6,0.2,0.8,0.4c0.2,0.2,0.4,0.4,0.6,0.7c0.2,0.3,0.2,0.6,0.3,0.9H149.3z"></path><path class="st41" d="M156.6,97.1c0,0.2,0,0.3,0.1,0.3c0,0.1,0.1,0.1,0.2,0.1c0,0,0.1,0,0.1,0c0.1,0,0.1,0,0.2,0v0.9
      c0,0-0.1,0-0.2,0.1c-0.1,0-0.1,0-0.2,0.1c-0.1,0-0.2,0-0.2,0c-0.1,0-0.1,0-0.2,0c-0.3,0-0.5-0.1-0.7-0.2c-0.2-0.1-0.3-0.3-0.3-0.6
      c-0.3,0.3-0.6,0.4-0.9,0.5c-0.4,0.1-0.7,0.2-1.1,0.2c-0.3,0-0.5,0-0.8-0.1c-0.2-0.1-0.5-0.2-0.6-0.3c-0.2-0.1-0.3-0.3-0.4-0.5
      c-0.1-0.2-0.2-0.5-0.2-0.8c0-0.4,0.1-0.7,0.2-0.9c0.1-0.2,0.3-0.4,0.5-0.5c0.2-0.1,0.5-0.2,0.7-0.3c0.3-0.1,0.5-0.1,0.8-0.1
      c0.2,0,0.5-0.1,0.7-0.1c0.2,0,0.4-0.1,0.6-0.1c0.2,0,0.3-0.1,0.4-0.2c0.1-0.1,0.1-0.2,0.1-0.4c0-0.2,0-0.3-0.1-0.4
      c-0.1-0.1-0.2-0.2-0.3-0.2c-0.1-0.1-0.2-0.1-0.4-0.1c-0.1,0-0.3,0-0.4,0c-0.4,0-0.7,0.1-0.9,0.2c-0.2,0.2-0.4,0.4-0.4,0.7h-1.3
      c0-0.4,0.1-0.7,0.3-0.9c0.2-0.3,0.4-0.5,0.6-0.6c0.2-0.2,0.5-0.3,0.8-0.3c0.3-0.1,0.6-0.1,1-0.1c0.3,0,0.6,0,0.9,0.1
      c0.3,0.1,0.5,0.2,0.8,0.3c0.2,0.1,0.4,0.3,0.5,0.5c0.1,0.2,0.2,0.5,0.2,0.8V97.1z M155.3,95.5c-0.2,0.1-0.4,0.2-0.7,0.2
      c-0.3,0-0.6,0.1-0.9,0.1c-0.1,0-0.3,0.1-0.4,0.1c-0.1,0-0.2,0.1-0.3,0.2c-0.1,0.1-0.2,0.2-0.2,0.3c-0.1,0.1-0.1,0.3-0.1,0.4
      c0,0.1,0,0.3,0.1,0.4c0.1,0.1,0.2,0.2,0.3,0.2c0.1,0.1,0.2,0.1,0.4,0.1c0.1,0,0.3,0,0.4,0c0.1,0,0.3,0,0.5-0.1
      c0.2,0,0.3-0.1,0.5-0.2c0.1-0.1,0.3-0.2,0.4-0.3c0.1-0.1,0.1-0.3,0.1-0.5V95.5z"></path><path class="st41" d="M168.4,98.4h-0.9l-0.2-1c-0.4,0.4-0.8,0.7-1.1,0.9c-0.4,0.2-0.8,0.3-1.3,0.3c-0.6,0-1.2-0.1-1.6-0.3
      c-0.5-0.2-0.9-0.5-1.2-0.9c-0.3-0.4-0.6-0.8-0.8-1.4c-0.2-0.5-0.3-1.1-0.3-1.6c0-0.6,0.1-1.1,0.3-1.6c0.2-0.5,0.4-1,0.8-1.4
      c0.3-0.4,0.7-0.7,1.2-0.9c0.5-0.2,1-0.3,1.6-0.3c0.4,0,0.9,0.1,1.3,0.2c0.4,0.1,0.8,0.3,1.1,0.5c0.3,0.2,0.6,0.5,0.8,0.9
      c0.2,0.3,0.3,0.8,0.4,1.2h-1.4c0-0.3-0.1-0.5-0.2-0.7c-0.1-0.2-0.3-0.4-0.5-0.5c-0.2-0.1-0.4-0.2-0.6-0.3
      c-0.2-0.1-0.5-0.1-0.7-0.1c-0.4,0-0.8,0.1-1.1,0.3c-0.3,0.2-0.6,0.4-0.8,0.7c-0.2,0.3-0.3,0.6-0.4,1c-0.1,0.4-0.1,0.8-0.1,1.1
      c0,0.4,0,0.8,0.1,1.1c0.1,0.4,0.2,0.7,0.4,1c0.2,0.3,0.5,0.5,0.8,0.7c0.3,0.2,0.7,0.3,1.1,0.3c0.4,0,0.7,0,1-0.1
      c0.3-0.1,0.5-0.3,0.7-0.4c0.2-0.2,0.3-0.4,0.4-0.7c0.1-0.3,0.2-0.6,0.2-0.9h-2.2v-1.1h3.5V98.4z"></path><path class="st41" d="M169.8,92.6h1.2v1.1h0c0-0.2,0.1-0.3,0.2-0.5c0.1-0.2,0.2-0.3,0.4-0.4c0.2-0.1,0.3-0.2,0.5-0.3
      c0.2-0.1,0.4-0.1,0.6-0.1c0.2,0,0.3,0,0.3,0c0.1,0,0.1,0,0.2,0v1.3c-0.1,0-0.2,0-0.3,0c-0.1,0-0.2,0-0.3,0c-0.2,0-0.4,0-0.6,0.1
      c-0.2,0.1-0.4,0.2-0.5,0.4c-0.1,0.2-0.3,0.4-0.3,0.6c-0.1,0.3-0.1,0.5-0.1,0.9v2.8h-1.3V92.6z"></path><path class="st41" d="M176.3,98.6c-0.5,0-0.9-0.1-1.3-0.2c-0.4-0.2-0.7-0.4-0.9-0.6c-0.3-0.3-0.4-0.6-0.6-1
      c-0.1-0.4-0.2-0.8-0.2-1.3c0-0.4,0.1-0.9,0.2-1.2c0.1-0.4,0.3-0.7,0.6-1c0.3-0.3,0.6-0.5,0.9-0.6c0.4-0.2,0.8-0.2,1.3-0.2
      c0.5,0,0.9,0.1,1.3,0.2c0.4,0.2,0.7,0.4,0.9,0.6c0.3,0.3,0.4,0.6,0.6,1c0.1,0.4,0.2,0.8,0.2,1.2c0,0.5-0.1,0.9-0.2,1.3
      c-0.1,0.4-0.3,0.7-0.6,1c-0.3,0.3-0.6,0.5-0.9,0.6C177.2,98.5,176.7,98.6,176.3,98.6z M176.3,97.6c0.3,0,0.5-0.1,0.8-0.2
      c0.2-0.1,0.4-0.3,0.5-0.5c0.1-0.2,0.2-0.4,0.3-0.7c0.1-0.2,0.1-0.5,0.1-0.8c0-0.3,0-0.5-0.1-0.8c-0.1-0.3-0.2-0.5-0.3-0.7
      c-0.1-0.2-0.3-0.4-0.5-0.5c-0.2-0.1-0.5-0.2-0.8-0.2c-0.3,0-0.5,0.1-0.8,0.2c-0.2,0.1-0.4,0.3-0.5,0.5c-0.1,0.2-0.2,0.4-0.3,0.7
      c-0.1,0.3-0.1,0.5-0.1,0.8c0,0.3,0,0.5,0.1,0.8c0.1,0.2,0.2,0.5,0.3,0.7c0.1,0.2,0.3,0.4,0.5,0.5S176,97.6,176.3,97.6z"></path><path class="st41" d="M185.5,98.4h-1.3v-0.8h0c-0.2,0.3-0.4,0.5-0.7,0.7c-0.3,0.2-0.6,0.3-1,0.3c-0.8,0-1.3-0.2-1.7-0.6
      c-0.3-0.4-0.5-1-0.5-1.7v-3.7h1.3v3.6c0,0.5,0.1,0.9,0.3,1.1s0.5,0.3,0.8,0.3c0.3,0,0.5,0,0.7-0.1c0.2-0.1,0.3-0.2,0.4-0.3
      c0.1-0.1,0.2-0.3,0.2-0.5s0.1-0.4,0.1-0.6v-3.4h1.3V98.4z"></path><path class="st41" d="M186.9,92.6h1.2v0.8h0c0.2-0.3,0.4-0.6,0.8-0.7c0.3-0.1,0.7-0.2,1.1-0.2c0.5,0,0.9,0.1,1.2,0.2
      c0.3,0.2,0.6,0.4,0.9,0.7c0.2,0.3,0.4,0.6,0.5,1c0.1,0.4,0.2,0.8,0.2,1.2c0,0.4-0.1,0.8-0.2,1.1c-0.1,0.4-0.3,0.7-0.5,1
      s-0.5,0.5-0.8,0.7c-0.3,0.2-0.7,0.3-1.1,0.3c-0.2,0-0.4,0-0.6-0.1c-0.2,0-0.4-0.1-0.5-0.2c-0.2-0.1-0.3-0.2-0.5-0.3
      c-0.1-0.1-0.3-0.3-0.4-0.4h0v2.9h-1.3V92.6z M191.4,95.5c0-0.3,0-0.5-0.1-0.8c-0.1-0.3-0.2-0.5-0.3-0.7c-0.1-0.2-0.3-0.3-0.5-0.5
      c-0.2-0.1-0.4-0.2-0.7-0.2c-0.5,0-1,0.2-1.2,0.6c-0.3,0.4-0.4,0.9-0.4,1.5c0,0.3,0,0.6,0.1,0.8c0.1,0.3,0.2,0.5,0.3,0.7
      c0.1,0.2,0.3,0.3,0.5,0.4c0.2,0.1,0.4,0.2,0.7,0.2c0.3,0,0.5-0.1,0.8-0.2c0.2-0.1,0.4-0.3,0.5-0.5c0.1-0.2,0.2-0.4,0.3-0.7
      C191.4,96,191.4,95.8,191.4,95.5z"></path></g></g></svg>