<?xml version="1.0" encoding="UTF-8" standalone="no"?>
<!-- Created with Inkscape (http://www.inkscape.org/) -->
<svg
   xmlns:dc="http://purl.org/dc/elements/1.1/"
   xmlns:cc="http://web.resource.org/cc/"
   xmlns:rdf="http://www.w3.org/1999/02/22-rdf-syntax-ns#"
   xmlns:svg="http://www.w3.org/2000/svg"
   xmlns="http://www.w3.org/2000/svg"
   xmlns:xlink="http://www.w3.org/1999/xlink"
   xmlns:sodipodi="http://sodipodi.sourceforge.net/DTD/sodipodi-0.dtd"
   xmlns:inkscape="http://www.inkscape.org/namespaces/inkscape"
   width="250"
   height="270"
   id="svg2"
   sodipodi:version="0.32"
   inkscape:version="0.45.1"
   version="1.0"
   sodipodi:docbase="C:\Documents and Settings\DavidR\My Documents\My Pictures\delete"
   sodipodi:docname="MFGco.svg"
   inkscape:output_extension="org.inkscape.output.svg.inkscape">
  <defs
     id="defs4" />
  <metadata
     id="metadata7">
    <rdf:RDF>
      <cc:Work
         rdf:about="">
        <dc:format>image/svg+xml</dc:format>
        <dc:type
           rdf:resource="http://purl.org/dc/dcmitype/StillImage" />
      </cc:Work>
    </rdf:RDF>
  </metadata>
  <g
     inkscape:label="Layer 1"
     inkscape:groupmode="layer"
     id="layer1"
     transform="translate(-217,-360)">
    <path
       style="fill:#000000;fill-opacity:0.25;fill-rule:evenodd;stroke:none"
       d="M 252,435 C 251,432 251,425 251,420 C 251,416 254,409 257,407 C 262,403 259,395 258,390 C 257,384 263,381 267,377 C 270,375 277,380 280,379 C 283,378 292,372 295,370 C 298,369 303,369 305,370 C 308,372 346,375 346,378 C 346,383 306,386 301,386 C 288,385 299,391 293,395 C 290,397 284,396 281,395 C 278,395 279,408 277,410 C 272,414 267,411 267,415 C 268,419 268,424 268,428 C 268,429 264,435 263,436 L 252,435 z "
       id="path6051"
       sodipodi:nodetypes="cssssssssccsssscc" />
    <rect
       style="fill:#000000;stroke:#000000;stroke-width:2;stroke-linejoin:round;stroke-miterlimit:4"
       id="rect3140"
       width="9"
       height="67"
       x="253"
       y="435" />
    <rect
       style="opacity:1;fill:#007f00;stroke:#000000;stroke-width:2;stroke-linejoin:round;stroke-miterlimit:4"
       id="rect3129"
       width="217"
       height="117"
       x="233"
       y="503" />
    <path
       style="fill:#bf0000;stroke:#000000;stroke-width:2;stroke-linejoin:round;stroke-miterlimit:4"
       d="M 232,503 L 307,453 L 307,502 z "
       id="path3131"
       sodipodi:nodetypes="cccc" />
    <use
       x="0"
       y="0"
       xlink:href="#path3131"
       id="use3136"
       transform="translate(72,0)"
       width="744"
       height="1052" />
    <use
       x="0"
       y="0"
       xlink:href="#path3131"
       id="use3138"
       transform="translate(144,0)"
       width="744"
       height="1052" />
    <rect
       style="opacity:1;fill:#000000;stroke:#000000;stroke-width:2;stroke-linejoin:round;stroke-miterlimit:4"
       id="rect6049"
       width="52"
       height="67"
       x="281"
       y="552" />
  </g>
</svg>
