<?xml version="1.0" encoding="UTF-8" standalone="no"?>
<!-- Created with Inkscape (http://www.inkscape.org/) -->

<svg
   xmlns:dc="http://purl.org/dc/elements/1.1/"
   xmlns:cc="http://creativecommons.org/ns#"
   xmlns:rdf="http://www.w3.org/1999/02/22-rdf-syntax-ns#"
   xmlns:svg="http://www.w3.org/2000/svg"
   xmlns="http://www.w3.org/2000/svg"
   xmlns:sodipodi="http://sodipodi.sourceforge.net/DTD/sodipodi-0.dtd"
   xmlns:inkscape="http://www.inkscape.org/namespaces/inkscape"
   version="1.1"
   width="1024"
   height="242"
   id="svg3815"
   inkscape:version="0.48.4 r9939"
   sodipodi:docname="MEDA AB logo.svg">
  <sodipodi:namedview
     pagecolor="#ffffff"
     bordercolor="#666666"
     borderopacity="1"
     objecttolerance="10"
     gridtolerance="10"
     guidetolerance="10"
     inkscape:pageopacity="0"
     inkscape:pageshadow="2"
     inkscape:window-width="1417"
     inkscape:window-height="745"
     id="namedview3001"
     showgrid="false"
     inkscape:zoom="0.95293687"
     inkscape:cx="670.89301"
     inkscape:cy="10.111304"
     inkscape:window-x="33"
     inkscape:window-y="6"
     inkscape:window-maximized="0"
     inkscape:current-layer="svg3815" />
  <defs
     id="defs3817">
    <clipPath
       id="clipPath3001">
      <path
         d="m 107.202,406.804 279.212,0 0,68 -279.212,0 0,-68 z"
         id="path3003" />
    </clipPath>
  </defs>
  <metadata
     id="metadata3820">
    <rdf:RDF>
      <cc:Work
         rdf:about="">
        <dc:format>image/svg+xml</dc:format>
        <dc:type
           rdf:resource="http://purl.org/dc/dcmitype/StillImage" />
        <dc:title />
      </cc:Work>
    </rdf:RDF>
  </metadata>
  <g
     transform="translate(0,-526)"
     id="layer1"
     style="fill:#e32119;fill-opacity:1;stroke:#e32119;stroke-opacity:1">
    <g
       transform="matrix(3.7187427,0,0,-3.7187427,-408.9273,2278.5681)"
       id="g2997"
       style="fill:#e32119;fill-opacity:1;stroke:#e32119;stroke-opacity:1">
      <g
         clip-path="url(#clipPath3001)"
         id="g2999"
         style="fill:#e32119;fill-opacity:1;stroke:#e32119;stroke-opacity:1">
        <g
           transform="translate(345.3977,429.5335)"
           id="g3005"
           style="fill:#e32119;fill-opacity:1;stroke:#e32119;stroke-opacity:1">
          <path
             d="m 0,0 19.204,0 0,1.422 c 0,7.599 -3.507,15.814 -11.773,15.814 -8.857,0 -12.614,-7.464 -12.614,-15.814 l 0,-1.422 -0.026,-22.881 -19.684,0 0,23.302 c 0,21.127 9.271,39.698 32.405,39.698 18.707,0 30.568,-15.563 30.568,-34.021 l 0,-28.979 -38.08,0 L 0,0"
             id="path3007"
             style="fill:#e32119;fill-opacity:1;fill-rule:nonzero;stroke:#e32119;stroke-width:0.97899997000000005;stroke-linecap:butt;stroke-linejoin:miter;stroke-miterlimit:4;stroke-opacity:1;stroke-dasharray:none" />
        </g>
        <g
           transform="translate(275.1707,444.5162)"
           id="g3009"
           style="fill:#e32119;fill-opacity:1;stroke:#e32119;stroke-opacity:1">
          <path
             d="m 0,0 0,-19.182 1.418,0 c 7.599,0 15.815,3.509 15.815,11.775 0,8.853 -7.464,12.612 -15.815,12.612 l -24.302,0 0,19.708 23.299,0 c 21.131,0 39.701,-9.27 39.701,-32.402 0,-18.708 -15.563,-30.567 -34.021,-30.567 l -28.979,0 0,38.056 L 0,0"
             id="path3011"
             style="fill:#e32119;fill-opacity:1;fill-rule:nonzero;stroke:#e32119;stroke-width:0.97899997000000005;stroke-linecap:butt;stroke-linejoin:miter;stroke-miterlimit:4;stroke-opacity:1;stroke-dasharray:none" />
        </g>
        <g
           transform="translate(216.6626,449.8141)"
           id="g3013"
           style="fill:#e32119;fill-opacity:1;stroke:#e32119;stroke-opacity:1">
          <path
             d="m 0,0 c -1.605,0 -2.902,-1.298 -2.902,-2.9 0,-1.601 1.297,-2.9 2.902,-2.9 l 0.051,0.025 9.761,0 0,-12.154 -10.132,0 0.267,-0.051 c -1.6,0 -2.901,-1.298 -2.901,-2.901 0,-1.602 1.301,-2.9 2.901,-2.9 l -0.245,0.052 27.3,0 0,-19.46 -27.837,0 c 0,0 -21.629,-1.326 -25.109,13.729 0,0 -2.756,12.929 8.579,17.594 0,0 -10.151,3.479 -8.701,16.242 0,0 0.289,16.24 27.553,15.081 l 25.608,0 0,-19.432 -27.072,0 L 0,0"
             id="path3015"
             style="fill:#e32119;fill-opacity:1;fill-rule:nonzero;stroke:#e32119;stroke-width:0.97899997000000005;stroke-linecap:butt;stroke-linejoin:miter;stroke-miterlimit:4;stroke-opacity:1;stroke-dasharray:none" />
        </g>
        <g
           transform="translate(160.9681,443.3948)"
           id="g3017"
           style="fill:#e32119;fill-opacity:1;stroke:#e32119;stroke-opacity:1">
          <path
             d="m 0,0 c 0,1.603 -1.431,2.901 -3.035,2.901 -1.6,0 -3.096,-1.298 -3.096,-2.901 l 0.025,-0.051 0,-9.76 -14.063,0 0,10.131 0.016,-0.267 c 0,1.601 -1.562,2.9 -3.164,2.9 -1.6,0 -3.031,-1.299 -3.031,-2.9 l -0.014,0.243 0,-37.165 -22.748,0 0,37.703 c 0,0 -1.72,21.475 15.833,25.11 0,0 14.157,2.528 20.092,-8.579 0,0 5.522,10.152 18.283,8.701 0,0 19.004,-0.29 17.842,-27.552 l 0,-35.408 -22.918,0 0,36.87 L 0,0"
             id="path3019"
             style="fill:#e32119;fill-opacity:1;fill-rule:nonzero;stroke:#e32119;stroke-width:0.97899997000000005;stroke-linecap:butt;stroke-linejoin:miter;stroke-miterlimit:4;stroke-opacity:1;stroke-dasharray:none" />
        </g>
      </g>
    </g>
  </g>
</svg>
