<svg xmlns="http://www.w3.org/2000/svg" width="84" height="88" viewBox="0 0 84 88" fill="none"><g clip-path="url(#clip0)"><path d="M5.96955 33.2957C5.78681 33.1122 5.56346 32.9898 5.2995 32.9083H5.2792C5.01524 32.8267 4.77158 32.8063 4.56854 32.8675C4.34519 32.9287 4.16245 33.0306 3.9594 33.1733C3.77666 33.3161 3.59392 33.4996 3.45179 33.7035C3.28935 33.9073 3.14722 34.1316 3.00509 34.3559C2.88326 34.5394 2.74113 34.7433 2.6193 34.9064C2.49747 35.0899 2.35534 35.2326 2.21321 35.3754C2.07108 35.4977 1.92894 35.5997 1.78681 35.6404C1.64468 35.7016 1.48224 35.7016 1.31981 35.6404H1.2995C0.994934 35.5385 0.791888 35.3346 0.670061 35.0288C0.548234 34.7229 0.548234 34.3559 0.690366 33.9481C0.791888 33.6219 0.954325 33.3364 1.15737 33.051C1.36042 32.7655 1.60407 32.5209 1.86803 32.2966L1.46194 31.8073C1.15737 32.0315 0.893411 32.317 0.649756 32.6636C0.406102 33.0102 0.22336 33.3568 0.121838 33.7238C0.0203148 34.0093 -0.0202943 34.2947 1.02236e-05 34.5598C1.02236e-05 34.8249 0.0609239 35.0695 0.142142 35.2938C0.243665 35.5181 0.365492 35.7016 0.527929 35.8647C0.690366 36.0278 0.893411 36.1502 1.13707 36.2317H1.15737C1.42133 36.3133 1.66498 36.3337 1.88833 36.2725C2.11169 36.2113 2.31473 36.089 2.49747 35.9463C2.68021 35.7832 2.84265 35.5997 3.00509 35.3754C3.16752 35.1511 3.30965 34.9268 3.45179 34.7229C3.57361 34.5394 3.71575 34.3559 3.83757 34.1928C3.9594 34.0297 4.08123 33.887 4.22336 33.7646C4.36549 33.6423 4.50762 33.5607 4.67006 33.5199C4.81219 33.4792 4.97463 33.4792 5.15737 33.5403H5.17768C5.52285 33.6423 5.76651 33.887 5.86803 34.2132C5.98986 34.5598 5.96955 34.9268 5.84773 35.3346C5.7259 35.722 5.54316 36.0686 5.2995 36.3744C5.05585 36.6803 4.75128 36.9657 4.3858 37.2308L4.73097 37.7201C5.09646 37.4755 5.42133 37.1696 5.7259 36.7822C6.03047 36.3948 6.25382 35.987 6.39595 35.5385C6.49747 35.253 6.53808 34.9676 6.53808 34.6821C6.53808 34.3967 6.49747 34.152 6.39595 33.9073C6.29443 33.6627 6.15229 33.4588 5.96955 33.2957Z" fill="black"></path><path d="M8.87311 26.7303L8.3655 26.9342C8.50763 27.3012 8.58885 27.6886 8.62946 28.0964C8.64976 28.5042 8.56854 28.8916 8.3655 29.2993C8.20306 29.6256 8.00002 29.8906 7.73606 30.1149C7.4721 30.3392 7.18783 30.4819 6.86296 30.5839C6.53809 30.6858 6.19291 30.7266 5.84773 30.6858C5.50255 30.6654 5.15738 30.5635 4.8122 30.4004L4.79189 30.38C4.46702 30.2169 4.18276 29.9926 3.9391 29.7275C3.71575 29.4624 3.53301 29.177 3.41118 28.8712C3.28936 28.5653 3.24875 28.2391 3.26905 27.8925C3.28936 27.5459 3.37057 27.2196 3.53301 26.8934C3.73606 26.4652 4.02032 26.1594 4.34519 25.9555C4.67007 25.7516 5.01524 25.5885 5.40103 25.4866L5.19799 24.8953C4.99494 24.9564 4.79189 25.038 4.58885 25.1195C4.3858 25.2011 4.20306 25.3234 4.00002 25.4458C3.81727 25.5885 3.63453 25.7516 3.4721 25.9351C3.30966 26.1186 3.16753 26.3429 3.0254 26.608C2.82235 27.0157 2.72083 27.4235 2.70052 27.8517C2.68022 28.2799 2.74113 28.6877 2.88326 29.0751C3.0254 29.4625 3.22844 29.8295 3.51271 30.1353C3.79697 30.4615 4.12184 30.7062 4.52793 30.9101L4.54824 30.9305C4.93403 31.1344 5.36042 31.2363 5.76651 31.2771C6.19291 31.3179 6.599 31.2567 6.98479 31.1344C7.37057 31.012 7.73606 30.8081 8.06093 30.5431C8.3858 30.278 8.64976 29.9314 8.85281 29.5236C9.11677 29.0139 9.21829 28.5245 9.19799 28.0556C9.15738 27.6478 9.05585 27.1789 8.87311 26.7303Z" fill="black"></path><path d="M3.84765 20.629L3.43378 21.2587L4.11162 21.708L4.5255 21.0783L3.84765 20.629Z" fill="black"></path><path d="M5.8664 22.0505L5.53088 22.5611L10.7509 26.0201L11.0865 25.5095L5.8664 22.0505Z" fill="black"></path><path d="M14.9441 16.393C14.3553 15.8629 13.7056 15.6386 13.0152 15.7405C12.3249 15.8425 11.4924 16.2502 10.5381 16.9231C10.0711 17.2697 9.66496 17.5348 9.31978 17.7183C8.97461 17.9018 8.67004 18.0241 8.42638 18.0649C8.16242 18.1057 7.93907 18.1057 7.73603 18.0241C7.53298 17.9426 7.35024 17.8406 7.1675 17.6775C6.98476 17.5348 6.84263 17.3309 6.76141 17.127C6.68019 16.9231 6.63958 16.6784 6.65989 16.4337C6.68019 16.1891 6.7411 15.9444 6.86293 15.6793C6.98476 15.4143 7.1472 15.1696 7.37055 14.9046C7.71572 14.5172 8.12181 14.1909 8.58882 13.9463C9.03552 13.7016 9.58374 13.5385 10.1929 13.4365L9.96953 12.3355C9.29948 12.4578 8.71065 12.6413 8.18273 12.9268C7.65481 13.2122 7.12689 13.6404 6.63958 14.1909C6.31471 14.5579 6.07105 14.9453 5.88831 15.3531C5.72588 15.7609 5.62435 16.1483 5.60405 16.5561C5.58374 16.9435 5.64466 17.3309 5.80709 17.6775C5.94923 18.0241 6.17258 18.3503 6.47715 18.6154C6.80202 18.9008 7.12689 19.1047 7.45176 19.2067C7.77664 19.3086 8.12181 19.3494 8.4873 19.2882C8.85278 19.2271 9.23857 19.1047 9.66496 18.8805C10.0914 18.6562 10.5381 18.3707 11.0254 18.0241C11.4721 17.6979 11.8579 17.4532 12.1827 17.2697C12.5076 17.0862 12.7919 16.9843 13.0558 16.9435C13.2995 16.9027 13.5228 16.9231 13.7259 16.9843C13.9289 17.0454 14.1117 17.1678 14.2944 17.3309C14.6802 17.6775 14.8629 18.1261 14.8426 18.6562C14.802 19.1863 14.5584 19.7164 14.0914 20.2261C13.604 20.7563 13.0964 21.1641 12.5482 21.4087C12 21.6534 11.3705 21.8165 10.6396 21.8981L10.7614 23.0399C11.5939 22.9583 12.3249 22.734 12.9746 22.4078C13.6244 22.0816 14.2335 21.5922 14.7817 20.9806C15.1269 20.5932 15.3908 20.2058 15.5736 19.7776C15.7563 19.3698 15.8579 18.962 15.8782 18.5542C15.8985 18.1464 15.8172 17.7591 15.6751 17.392C15.5127 17.025 15.269 16.6988 14.9441 16.393Z" fill="black"></path><path d="M22.335 9.60336C21.9695 9.09363 21.5635 8.68584 21.1168 8.40039C20.6701 8.11495 20.203 7.93144 19.7157 7.84988C19.2487 7.76833 18.7817 7.78872 18.3147 7.89066C17.8477 7.99261 17.4416 8.17611 17.0761 8.44117C16.7919 8.64507 16.5482 8.86935 16.3655 9.11402C16.1827 9.35869 16.0406 9.60336 15.9391 9.86842C15.8376 10.1335 15.7563 10.3985 15.736 10.684C15.6954 10.9694 15.6751 11.2345 15.6751 11.5199L14.7817 10.2558L13.8477 10.9083L19.5939 19.0844L20.5279 18.4319L18.335 15.3327C18.5787 15.4143 18.8426 15.4959 19.1066 15.5366C19.3706 15.5774 19.6548 15.5978 19.9188 15.5978C20.203 15.5774 20.4873 15.5162 20.7716 15.4347C21.0558 15.3327 21.3604 15.19 21.6447 14.9861C22.0305 14.7211 22.335 14.3744 22.5787 13.987C22.8223 13.5793 23.0051 13.1511 23.0863 12.6821C23.1675 12.2132 23.1472 11.7035 23.0254 11.1937C22.9239 10.6432 22.7005 10.1131 22.335 9.60336ZM21.9898 12.519C21.9289 12.8656 21.8071 13.1919 21.6244 13.4773C21.4416 13.7832 21.1777 14.0278 20.8934 14.2317C20.6091 14.4356 20.2843 14.5783 19.9391 14.6599C19.5939 14.7415 19.2284 14.7415 18.8832 14.6803C18.5178 14.6191 18.1726 14.4968 17.8477 14.2725C17.5025 14.0686 17.2183 13.7832 16.9543 13.4162C16.7107 13.0491 16.5279 12.6821 16.4467 12.2947C16.3655 11.9073 16.3452 11.5403 16.4264 11.1733C16.4873 10.8063 16.6091 10.4801 16.8122 10.1743C16.9949 9.86842 17.2386 9.60336 17.5228 9.39947C17.8274 9.19557 18.132 9.05285 18.4772 8.97129C18.8223 8.88974 19.1675 8.88974 19.5127 8.97129C19.8579 9.03246 20.203 9.17519 20.5279 9.39947C20.8528 9.60336 21.1371 9.9092 21.401 10.2762C21.665 10.6432 21.8477 11.0306 21.9492 11.418C22.0305 11.8054 22.0508 12.1724 21.9898 12.519Z" fill="black"></path><path d="M28.1015 3.58848C27.3909 3.32342 26.5584 3.40498 25.5838 3.81276C25.0762 4.03705 24.6295 4.28172 24.2843 4.54678C23.9391 4.81184 23.5939 5.13806 23.2894 5.48468L23.9594 6.21869C24.2234 5.93325 24.5076 5.66818 24.7919 5.42351C25.0965 5.17884 25.4417 4.97495 25.868 4.79145C26.5178 4.506 27.1066 4.44483 27.6142 4.62833C28.1219 4.79145 28.5076 5.19923 28.7716 5.8313L28.8731 6.07597C28.5279 6.11675 28.1625 6.17792 27.797 6.27986C27.4315 6.36142 27.0254 6.50414 26.5787 6.70804C26.132 6.89154 25.7462 7.11582 25.4213 7.38088C25.0965 7.64594 24.8325 7.911 24.6498 8.21684C24.467 8.52268 24.3655 8.84891 24.3249 9.19552C24.3046 9.54214 24.3655 9.90915 24.5279 10.2762C24.6904 10.6432 24.8934 10.9286 25.1574 11.1529C25.4213 11.3568 25.7259 11.4995 26.0508 11.5811C26.3757 11.6626 26.7208 11.683 27.066 11.6422C27.4112 11.6015 27.7564 11.5199 28.0812 11.3772C28.7107 11.1121 29.1777 10.7655 29.4823 10.3577C29.7868 9.92954 29.9899 9.52175 30.1117 9.09358L30.5584 10.1538L31.5533 9.72565L29.7462 5.42351C29.3807 4.44483 28.8122 3.83315 28.1015 3.58848ZM29.6447 8.35957C29.6244 8.64502 29.5432 8.91008 29.401 9.17514C29.2589 9.4402 29.0762 9.66448 28.8325 9.88876C28.5889 10.113 28.3046 10.2762 27.9797 10.4189C27.7361 10.5208 27.5127 10.582 27.2691 10.6024C27.0254 10.6228 26.8021 10.6228 26.599 10.5616C26.3757 10.5004 26.1929 10.4189 26.0305 10.2762C25.868 10.1538 25.7259 9.97032 25.6447 9.74603C25.462 9.29747 25.4823 8.8693 25.7259 8.44112C25.9696 8.03334 26.4163 7.68672 27.066 7.40127C27.4924 7.21777 27.8985 7.09543 28.264 7.01388C28.6295 6.93232 28.9543 6.87115 29.2386 6.83037L29.5229 7.50322C29.6244 7.78867 29.665 8.07412 29.6447 8.35957Z" fill="black"></path><path d="M34.6193 8.91012L33.9289 5.95368C33.8071 5.40317 33.7665 4.89344 33.8071 4.42448C33.868 3.95553 33.9898 3.54775 34.1929 3.20113C34.3959 2.85451 34.6599 2.56906 34.9848 2.32439C35.3096 2.10011 35.6751 1.937 36.0812 1.83505L36.1624 1.81466L35.8782 0.611694C35.5127 0.693251 35.2081 0.795198 34.9238 0.978701C34.6396 1.14181 34.3959 1.34571 34.1726 1.61077C33.9492 1.85544 33.7868 2.14089 33.6446 2.44673C33.5025 2.75257 33.401 3.07879 33.3401 3.40502L32.8934 1.46804L31.7969 1.7331L33.5025 9.17518L34.6193 8.91012Z" fill="black"></path><path d="M38.2944 5.77016C38.5178 6.23911 38.8224 6.6469 39.1878 6.97313C39.5533 7.29935 39.9797 7.56441 40.4873 7.74792C40.9746 7.93142 41.5026 7.99259 42.0508 7.95181C42.7614 7.91103 43.3503 7.72753 43.8173 7.42169C44.2843 7.11585 44.6904 6.72846 45.0559 6.2595L44.2843 5.62744C44 5.97405 43.6751 6.2595 43.3097 6.50417C42.9442 6.74884 42.5178 6.89157 42.0305 6.91196C41.6244 6.93235 41.2589 6.89157 40.9137 6.74884C40.5685 6.62651 40.264 6.42262 40 6.17795C39.7361 5.93327 39.5127 5.62744 39.3503 5.26043C39.1878 4.91381 39.0863 4.52642 39.066 4.11863C39.0457 3.71085 39.0863 3.32345 39.1878 2.95644C39.3097 2.58944 39.4721 2.26321 39.6954 1.97776C39.9188 1.69231 40.2031 1.46803 40.5279 1.28453C40.8528 1.10102 41.198 1.01947 41.5838 0.978687C42.1117 0.937909 42.5381 1.01947 42.9239 1.22336C43.2894 1.42725 43.6345 1.67192 43.9594 1.97776L44.6498 1.1418C44.467 0.958298 44.264 0.795184 44.0406 0.652459C43.8173 0.489345 43.5939 0.36701 43.33 0.265063C43.0863 0.163117 42.802 0.0815602 42.4975 0.0407817C42.1929 3.19444e-06 41.868 -0.0203861 41.5026 3.19537e-06C40.9543 0.0407817 40.4264 0.183506 39.9797 0.428177C39.5127 0.672848 39.1269 0.978687 38.802 1.36608C38.4772 1.75348 38.2335 2.20204 38.0711 2.69138C37.9086 3.20112 37.8477 3.71085 37.8883 4.26136C37.929 4.81187 38.0711 5.30121 38.2944 5.77016Z" fill="black"></path><path d="M44.6701 44.3874C40.1828 41.9611 36.4467 39.7183 35.5127 37.3735C34.3554 35.7424 34.0711 33.5811 34.9239 31.6237C35.1066 31.2159 35.3097 30.8489 35.5737 30.5227C34.0914 31.1752 32.9544 32.215 32.2843 33.7238C29.9899 38.9027 36 43.4087 42.7209 47.1195C46.6396 49.2808 49.4417 51.0139 50.863 52.7266C53.1168 54.5005 53.9696 57.62 52.7716 60.3522C52.731 60.4541 52.6701 60.5357 52.6295 60.6376C53.6244 59.9036 54.396 58.9249 54.9239 57.7627C57.198 52.5635 52.3452 48.5672 44.6701 44.3874Z" fill="black"></path><path d="M50.335 35.2938V29.8906H44.2234V31.9092H48.3046V35.2938H50.335Z" fill="black"></path><path d="M36.4873 56.3559H34.4772V61.8202H40.4873V59.8017H36.4873V56.3559Z" fill="black"></path><path d="M68.0406 77.6627L68.731 78.519C70.2335 77.2956 71.6751 75.95 72.9949 74.5431L72.2031 73.7887C70.9036 75.1752 69.5025 76.4801 68.0406 77.6627Z" fill="black"></path><path d="M82.9442 53.9907C82.4975 55.8258 81.929 57.6608 81.2589 59.4347L82.2741 59.8221C82.9645 58.0074 83.5533 56.1316 84 54.2354L82.9442 53.9907Z" fill="black"></path><path d="M75.8173 69.4254L76.6904 70.0779C77.8275 68.5079 78.8833 66.836 79.797 65.1436L78.8427 64.6135C77.9493 66.2651 76.9341 67.8758 75.8173 69.4254Z" fill="black"></path><path d="M47.5533 86.9194L47.7361 88C49.6447 87.6942 51.5533 87.2456 53.4011 86.6951L53.0965 85.6553C51.2691 86.1854 49.4214 86.6136 47.5533 86.9194Z" fill="black"></path><path d="M58.3959 83.6367L58.8426 84.6358C60.6091 83.8406 62.335 82.9231 63.9797 81.9036L63.4112 80.9657C61.8071 81.9648 60.1218 82.8619 58.3959 83.6367Z" fill="black"></path></g><defs><clipPath id="clip0"><rect width="84" height="88" fill="white"></rect></clipPath></defs></svg>