<?xml version="1.0" encoding="UTF-8"?>
<!DOCTYPE svg PUBLIC "-//W3C//DTD SVG 1.1//EN" "http://www.w3.org/Graphics/SVG/1.1/DTD/svg11.dtd">
<!-- Creator: CorelDRAW -->
<svg xmlns="http://www.w3.org/2000/svg" xml:space="preserve" width="210mm" height="297mm" version="1.1" style="shape-rendering:geometricPrecision; text-rendering:geometricPrecision; image-rendering:optimizeQuality; fill-rule:evenodd; clip-rule:evenodd"
viewBox="0 0 21000 29700"
 xmlns:xlink="http://www.w3.org/1999/xlink"
 xmlns:xodm="http://www.corel.com/coreldraw/odm/2003">
 <defs>
  <style type="text/css">
   <![CDATA[
    .fil1 {fill:#9D89BF;fill-rule:nonzero}
    .fil0 {fill:#353060;fill-rule:nonzero}
   ]]>
  </style>
 </defs>
 <g id="Layer_x0020_1">
  <metadata id="CorelCorpID_0Corel-Layer"/>
  <g id="_1708737332160">
   <path class="fil0" d="M3709.31 12533.58l0 473.9 -787.4 0 0 2079.2 -509.57 0 0 -2079.2 -454.53 0c-159.29,0 -298.76,-107.15 -340.08,-260.78l-26.23 -98.41 -0.44 -1.79 -29.84 -112.92 843.01 0 1305.08 0zm15729.47 -474.38l0 474.48 -589.28 0c-43.78,0 -82.39,29.03 -93.43,71.34l-37.71 141.74c-41.32,153.64 -180.79,260.78 -340.05,260.78l-640.04 0 0 2079.2 -509.38 0 0 -2079.2 -787.59 0 0 -473.86 2130.28 0c44.77,0 80.82,-30.86 93.43,-71.96l37.94 -141.7c38.25,-152.36 183.09,-260.82 339.37,-260.82l396.46 0zm-3300.67 474.51l0 2553.06 -416.27 0 -1315.09 -1699.93 0 1699.93 -502.36 0 0 -2553.06 455.42 0 1276.16 1650.32 0 -1650.32 502.14 0zm-2597.06 2089.76l0 463.3 -1924.86 0 0 -2553.06 1907.28 0 0 463.18 -1405.14 0 0 569.24 1245.31 0 0 463.34 -1245.31 0 0 594 1422.72 0zm-3293.33 -858.55l-605.93 0 0 -768.03 602.13 0c155.11,0 276.1,32.89 359.64,97.96 82.07,63.59 122.02,156.44 122.02,284.42 0,118.54 -41.77,209.61 -126.3,279.39 -54.27,44.35 -121.02,74.76 -200.25,91.74 -46.27,9.57 -96.81,14.52 -151.31,14.52zm1067.93 1275.14l-75.78 -106.38 -72.94 -102.2 -389.57 -546.49 -2.84 -4.06 -0.76 -1.14 -20.39 -28.59 -85.77 -120.11 0.67 0c71.7,-23.39 139.25,-53.92 200.48,-90.84 74.85,-45.56 140.58,-101.98 194.73,-166.91 54.6,-65.76 97.61,-141.83 128.34,-226.93 30.85,-85.32 46.36,-182.93 46.36,-290.56 0,-124.6 -22.27,-239.75 -66.63,-342.05 -44.48,-102.23 -109.06,-190.24 -192.02,-260.72 -82.29,-70.14 -184.17,-124.95 -302.81,-162.86 -117.86,-37.27 -250.79,-56.51 -395.56,-56.51l-1141.86 0 0 2553.06 502.49 0 0 -865.73 495.18 0 241.35 340.84 0.32 0.45 0.45 0.67 0.35 0.45 265.41 372.14c70.71,99.08 182.83,151.98 301.11,151.18l403 0 -33.31 -46.71zm-3544.16 -1275.14l-605.93 0 0 -768.03 602.1 0c155.14,0 276.14,32.89 359.67,97.96 82.04,63.59 122.02,156.44 122.02,284.42 0,118.54 -41.77,209.61 -126.29,279.39 -54.28,44.35 -121.03,74.76 -200.26,91.74 -46.27,9.57 -96.81,14.52 -151.31,14.52zm1067.9 1275.14l-75.75 -106.38 -72.94 -102.2 -389.56 -546.49 -2.84 -4.06 -0.77 -1.14 -20.39 -28.59 -85.77 -120.11 0.67 0c71.7,-23.39 139.25,-53.92 200.48,-90.84 74.86,-45.56 140.59,-101.98 194.74,-166.91 54.59,-65.76 97.6,-141.83 128.33,-226.93 30.82,-85.32 46.36,-182.93 46.36,-290.56 0,-124.6 -22.27,-239.75 -66.62,-342.05 -44.48,-102.23 -109.1,-190.24 -192.06,-260.72 -82.26,-70.14 -184.14,-124.95 -302.77,-162.86 -117.87,-37.27 -250.8,-56.51 -395.57,-56.51l-1141.86 0 0 2553.06 502.49 0 0 -865.73 495.18 0 241.35 340.84 0.32 0.45 0.45 0.67 0.35 0.45 265.41 372.14c70.71,99.08 182.8,151.98 301.12,151.18l403 0 -33.35 -46.71zm-3062.92 -896.46c-39.63,102.97 -95.12,193.72 -165.25,269.24 -69.78,75.53 -154.75,136.09 -253.03,180.09 -97.83,43.68 -206.89,66.08 -324.41,66.08 -117.87,0 -227.15,-23.07 -326.45,-68.09 -99.17,-45.02 -185.96,-106.92 -256.64,-183.47 -71.15,-76.9 -127.31,-168.06 -166.94,-270.96 -39.6,-103 -59.64,-213.98 -59.64,-329.81 0,-115.82 20.04,-226.93 59.64,-329.93 39.63,-102.87 95.12,-193.39 165.25,-269.14 69.69,-75.53 154.79,-135.87 252.94,-179.87 97.92,-44.03 207.24,-66.43 324.41,-66.43 117.51,0 227.28,22.75 326.45,68.12 99.61,45.03 185.93,106.7 256.73,183.25 71.15,76.87 127.31,167.93 166.94,271.28 39.63,102.88 59.99,213.98 59.99,329.81 0,115.82 -20.36,226.83 -59.99,329.83zm488.32 -846.94c-64.96,-159.19 -157.14,-300.44 -273.32,-418.98 -116.15,-118.86 -256.99,-213.66 -419.18,-282.77 -162.22,-69.11 -343.42,-103.89 -538.51,-103.89 -195.76,0 -376.87,35.57 -539.09,105.58 -161.87,70.13 -304.15,166.59 -422.65,286.15 -118.22,119.53 -211.65,261.49 -277.03,421.32 -64.96,159.19 -98.18,330.85 -98.18,509.7 0,178.75 33.22,350.09 98.18,510.05 65.38,159.47 157.47,300.64 273.65,418.82 116.14,118.89 257.08,214.01 419.3,282.77 161.87,68.8 343.3,103.67 538.39,103.67 195.75,0 376.99,-35.22 539.18,-105.68 161.52,-69.81 304.05,-165.92 422.24,-285.8 59.31,-59.89 112.44,-125.3 158.8,-195.75 46.18,-70.14 85.68,-145.66 118.22,-225.24 65.38,-159.86 98.6,-331.18 98.6,-509.93 0,-178.87 -33.22,-350.19 -98.6,-510.02z"/>
   <path class="fil1" d="M8775.32 16675c-22.4,43.33 -54.59,78.24 -96.58,106.03 -42.57,27.25 -97.16,41.1 -163.79,41.1l-344.89 0 0 -565.44 344.89 0c66.63,0 121.22,13.85 163.79,41.22 41.99,27.67 74.18,63.02 96.58,106.93 22.4,43.78 33.54,89.37 33.54,136.88 0,46.05 -11.14,90.4 -33.54,133.28zm267.9 -396.81c-43.81,-84.07 -109.54,-152.07 -197.67,-204.85 -88.58,-52.8 -198.69,-79.13 -330.6,-79.13l-647.25 0 0 1646.59 302.36 0 0 -554.28 344.89 0c131.91,0 242.02,-26.32 330.6,-80.02 88.13,-53.26 153.86,-121.7 197.67,-205.78 43.91,-83.63 65.86,-171.31 65.86,-263.5 0,-89.05 -21.95,-175.39 -65.86,-259.03zm1656.51 -284.04l0 1646.62 -302.33 0 0 -707.73 -687.55 0 0 707.73 -302.91 0 0 -1646.62 302.91 0 0 676.42 687.55 0 0 -676.42 302.33 0zm1061.29 307.21l-249.2 729.74 493.94 0 -244.74 -729.74zm-451.59 1339.41l-315.99 0 567.33 -1646.4 393.87 0 569.59 1646.4 -315.98 0 -117.97 -347.16 -663.01 0 -117.84 347.16zm1810.85 -1386.25l333.76 0c56.28,0 103.79,11.13 142.62,33.53 38.49,22.4 68,51.89 89.03,89.03 20.61,37.17 30.85,77.79 30.85,122.14 0,41.55 -10.24,80.47 -30.85,117.17 -21.03,36.25 -50.54,65.31 -89.03,87.71 -38.83,22.4 -86.34,33.54 -142.62,33.54l-333.76 0 0 -483.12zm570.83 697c24.99,-8.55 48.73,-18.79 71.13,-30.51 83.63,-43.81 147.57,-103.35 191.48,-177.98 43.77,-74.73 65.73,-159.28 65.73,-252.81 0,-94.8 -21.96,-179.32 -65.73,-254.5 -43.91,-74.76 -107.85,-133.72 -191.48,-176.73 -83.64,-42.89 -185.61,-64.84 -306.07,-64.84l-638.22 0 0 1646.58 302.33 0 0 -653.98 260.37 0 351.53 653.98 336.02 0 -377.09 -689.21zm2363.69 -957.37l0 1646.62 -297.96 0 0 -1188.58 -376.19 792.66 -282.2 0 -378.43 -797.96 0 1193.88 -295.72 0 0 -1646.62 402.52 0 411.1 892.88 421 -892.88 395.88 0zm1061.39 307.21l-249.2 729.74 493.94 0 -244.74 -729.74zm-451.6 1339.41l-315.95 0 567.33 -1646.4 393.84 0 569.59 1646.4 -315.99 0 -117.96 -347.16 -662.99 0 -117.87 347.16z"/>
  </g>
 </g>
</svg>
