<svg xmlns="http://www.w3.org/2000/svg" viewBox="0 0 335.2 85"><defs><style>.cls-1{fill:#136ab3;}.cls-2{fill:#0f8ece;}.cls-3{fill:#6b6769;}</style></defs><title>Asset 1</title><g id="Layer_2" data-name="Layer 2"><g id="Layer_1-2" data-name="Layer 1"><path class="cls-1" d="M134.71,51.14l-4.36,30.31H118.14q-1.62-7-2.94-15.91-.63,3.83-2.76,15.91H100.3L95.91,51.14h9.51l1,10.57,1,10.24c.36-5.31,1.27-12.24,2.69-20.81h10.14c.12.88.48,4.21,1.06,10l1.12,11.55a207.36,207.36,0,0,1,2.72-21.54Z"/><path class="cls-1" d="M156.76,56.58V81.44h-9.58l.16-2a6.09,6.09,0,0,1-2.41,1.89,8.06,8.06,0,0,1-3.28.63,8.92,8.92,0,0,1-3.51-.6,4.6,4.6,0,0,1-2.06-1.59,5.22,5.22,0,0,1-.83-2.07,37.77,37.77,0,0,1-.16-4.29V56.58h9.43v17a15,15,0,0,0,.21,3.45c.15.36.54.54,1.19.54s1.09-.18,1.22-.56a16.79,16.79,0,0,0,.2-3.62V56.58Z"/><path class="cls-1" d="M179,51.14l-3.43,13.4,5.22,16.91h-9.08a87.7,87.7,0,0,1-3-11.07c-.29,1.93-.63,4-1.05,6.12l-.93,5h-9.56l3.62-16.91-3.57-13.4h9.46c.18.82.52,2.21,1,4.16.4,1.49.73,2.86,1,4.13l2.07-8.29Z"/><path class="cls-1" d="M190.45,55.09h-9.69v-4h9.69Zm0,26.36h-9.69V56.59h9.69Z"/><path class="cls-1" d="M219.1,51.14l5.64,30.31h-10L214.22,76h-3.57l-.54,5.46H200l5-30.31Zm-5.16,19.47q-.74-5.14-1.49-12.73Q211,66.6,210.6,70.61Z"/><path class="cls-1" d="M234.61,56.59l-.15,2.2a8,8,0,0,1,6-2.64,7.28,7.28,0,0,1,3.77,1,4.2,4.2,0,0,1,2,2.18,15.67,15.67,0,0,1,.39,4.2V74a16.33,16.33,0,0,1-.5,4.82,4.22,4.22,0,0,1-2,2.29,7.56,7.56,0,0,1-3.73.85,7.81,7.81,0,0,1-3.21-.66,8.13,8.13,0,0,1-2.71-1.94V85H225V56.59Zm2.62,7.23A10.16,10.16,0,0,0,237,61c-.13-.33-.51-.49-1.13-.49a1.18,1.18,0,0,0-1.18.56,8.64,8.64,0,0,0-.25,2.72V74.14a9,9,0,0,0,.26,2.82c.18.38.58.56,1.19.56s1-.17,1.1-.51a8.32,8.32,0,0,0,.22-2.51Z"/><path class="cls-1" d="M258.16,56.59l-.15,2.2a8,8,0,0,1,6.05-2.64,7.28,7.28,0,0,1,3.77,1,4.13,4.13,0,0,1,2,2.18,15.16,15.16,0,0,1,.4,4.2V74a16.33,16.33,0,0,1-.5,4.82,4.18,4.18,0,0,1-2,2.29,7.58,7.58,0,0,1-3.72.85,7.83,7.83,0,0,1-3.22-.66A8.23,8.23,0,0,1,258,79.31V85h-9.42V56.59Zm2.62,7.23a10.16,10.16,0,0,0-.21-2.79c-.13-.33-.51-.49-1.13-.49a1.18,1.18,0,0,0-1.18.56,8.64,8.64,0,0,0-.25,2.72V74.14a8.3,8.3,0,0,0,.27,2.82c.18.38.57.56,1.18.56s1-.17,1.1-.51a8.32,8.32,0,0,0,.22-2.51Z"/><polygon class="cls-1" points="292.1 51.14 292.1 57.22 286.31 57.22 286.31 81.45 276.51 81.45 276.51 57.22 270.72 57.22 270.72 51.14 292.1 51.14"/><path class="cls-1" d="M312.19,69.48h-12.1v5.38a5,5,0,0,0,.3,2.17,1.23,1.23,0,0,0,1.15.49,1.45,1.45,0,0,0,1.4-.64,5.9,5.9,0,0,0,.36-2.51v-3.3h8.89v1.84a13.53,13.53,0,0,1-.35,3.55,7,7,0,0,1-1.68,2.64,8.16,8.16,0,0,1-3.36,2.1,15.74,15.74,0,0,1-5.1.71,18,18,0,0,1-5.24-.69,8.61,8.61,0,0,1-3.54-1.91,6.62,6.62,0,0,1-1.76-2.66,13.79,13.79,0,0,1-.49-4.22V65.18a10.25,10.25,0,0,1,1.1-5.14,6.88,6.88,0,0,1,3.58-2.88,15,15,0,0,1,5.7-1,15.23,15.23,0,0,1,6.52,1.22,7.38,7.38,0,0,1,3.59,3.19,12.47,12.47,0,0,1,1,5.62Zm-9.41-4V63.6a7.59,7.59,0,0,0-.25-2.5,1,1,0,0,0-1-.56c-.64,0-1,.16-1.19.48a8.31,8.31,0,0,0-.23,2.58v1.83Z"/><path class="cls-1" d="M334.9,66h-8.85V63.12a4.63,4.63,0,0,0-.3-2,1.45,1.45,0,0,0-2.2-.07,4.89,4.89,0,0,0-.27,2.1V74.86a3.79,3.79,0,0,0,.41,2,1.34,1.34,0,0,0,1.22.67,1.29,1.29,0,0,0,1.28-.69,7,7,0,0,0,.33-2.63v-3h8.38a29.69,29.69,0,0,1-.27,4.47,6.35,6.35,0,0,1-1.55,3,8.06,8.06,0,0,1-3.43,2.36,14.81,14.81,0,0,1-5.24.8,15,15,0,0,1-6.3-1.1,6.6,6.6,0,0,1-3.29-3.07,13.15,13.15,0,0,1-1-5.61V65.07a11.23,11.23,0,0,1,.79-4.78A7,7,0,0,1,318,57.42a16.2,16.2,0,0,1,12.55,0A6.79,6.79,0,0,1,334,60.57,13.71,13.71,0,0,1,334.9,66"/><path class="cls-2" d="M72.91,25.07C72.8,45.88,61.68,49.15,47.7,51.24c-15.29.81-19.43-.94-29.25,2A114.43,114.43,0,0,0,0,62.52V46.71s19.54-8.86,36.68-8.16C54.24,41.34,61,31.72,57.38,22c-5.91-11.74-20.91-4.56-22,4.29a33.41,33.41,0,0,0,.11,8.22s-7,.22-9.68.55-8.44,1.33-9,1.9c-.21-6.28,0-21.18,0-21.18h-11V2.39l47.48.35S73,4.27,72.91,25.07"/><path class="cls-1" d="M6.66,62.16s11.79-8.36,36.12-7.44C66,55.89,74.6,44.86,75.93,31.54c0,0-.32-.82-.1-8.15.11-.69,3.84,14.24,5.7,15.87-.88,7.79-8,17.61-19.21,20.81-10.86,2.73-18.28,2.16-27,1.78.22.7,0,17.64,0,17.64H16.59V65.3s-9.28,3.61-9.93,5,0-8.14,0-8.14"/><path class="cls-1" d="M117.85,20.82a9.82,9.82,0,0,1,2-.21,6.5,6.5,0,0,1,3.86,1.25,3.53,3.53,0,0,1,1.7,2.93,4.77,4.77,0,0,1-.14,1.07,20.06,20.06,0,0,0-.6,4.55,15.54,15.54,0,0,1-1.42,6.91,7.52,7.52,0,0,1-3.42,3.55,8.14,8.14,0,0,1-2.83,1,1.18,1.18,0,0,1-1.14-.85,8,8,0,0,0-1.09-1.81A14.62,14.62,0,0,0,113,37.25a12.28,12.28,0,0,1-2-2.53,7.07,7.07,0,0,1-1.08-2.6A12.88,12.88,0,0,0,114.33,36a9.12,9.12,0,0,0,3.43,1.18,2.18,2.18,0,0,0,1.77-.77,8.69,8.69,0,0,0,1.23-3.14,22.74,22.74,0,0,0,.58-5.2c0-1.89-.19-3.05-.58-3.49a1.74,1.74,0,0,0-1.27-.65,6.3,6.3,0,0,0-1.71.53c-.86.35-2.11.91-3.75,1.67a3.16,3.16,0,0,1-1.28.35c-.31,0-.53-.27-.66-.83a6.52,6.52,0,0,1-.2-1.49c0-.89.33-1.43,1-1.61a1.9,1.9,0,0,0,1.35-1.26,4.89,4.89,0,0,0,.39-1.72,2.56,2.56,0,0,0-.46-1.4c-.31-.47-.6-.7-.87-.7-2,1.53-3.94,3-5.74,4.47a1.47,1.47,0,0,1,1.07,1.53,3,3,0,0,1-.51,1.56q-1.52,2.4-2.34,3.83a2.64,2.64,0,0,1,1.38,1.21,46,46,0,0,0,4.56-9.75c.12-.36.24-.54.37-.54s.17.14.17.4a21.18,21.18,0,0,1-1.45,5.11q-1.45,3.94-3.45,8a37.58,37.58,0,0,1-2.72,5.07c-.49.66-.91,1-1.26,1s-.63-.31-.86-.94a4.68,4.68,0,0,1-.35-1.74,2.54,2.54,0,0,1,.64-1.88,4.79,4.79,0,0,0,1.58-3.42c0-.25-.1-.36-.32-.36a3.19,3.19,0,0,0-1.29.79,3.14,3.14,0,0,1-1.35.8c-.39,0-.57-.59-.56-1.77s.36-1.9,1.08-2.18a3.94,3.94,0,0,0,1.88-1.84,6.25,6.25,0,0,0,.81-1.72c0-.19,0-.28-.13-.28a7.06,7.06,0,0,0-2.24,1.28,3.7,3.7,0,0,1-1.9.79c-.49,0-.73-.5-.73-1.5a4.63,4.63,0,0,1,.73-2.58,2.23,2.23,0,0,1,1.72-1.16,3.66,3.66,0,0,0,2.09-.95q1.69-1.34,5.49-4.12T114.77,13a5.91,5.91,0,0,0-2.31.54A52.46,52.46,0,0,0,107,16.64a50.5,50.5,0,0,0-4.84,3.23,2.9,2.9,0,0,1-2.08.63,5.43,5.43,0,0,1-3-1.13c-1.08-.75-1.62-1.32-1.61-1.7l.27-.45c.17-.15,2-.92,5.32-2.31s6.06-2.41,8-3a7.28,7.28,0,0,0,2.4-1.26,29.37,29.37,0,0,0,3-3,18.92,18.92,0,0,0,2.25-2.76,3,3,0,0,0,.29-1.31,1.58,1.58,0,0,0-.84-1.61c-.24-.12-.35-.23-.35-.32s.13-.13.4-.13a3.68,3.68,0,0,1,2.87,1.35,4.29,4.29,0,0,1,1.18,2.87,2.2,2.2,0,0,1-.78,1.78,15.67,15.67,0,0,0-2.42,2.4,14.77,14.77,0,0,1,3.37-.56,2.22,2.22,0,0,1,1.85,1,3.2,3.2,0,0,1,.75,1.75c0,.47-.3.77-.9.89a21.85,21.85,0,0,0-6.71,2.91,4.38,4.38,0,0,1,2.43,3.89,6.24,6.24,0,0,1-.09,1M115.36,1.88a1.47,1.47,0,0,1-.32.8c-2.28,3.08-3.51,5.24-3.71,6.47S110.68,11,110,11s-1.37-.57-2.07-1.71a5.94,5.94,0,0,1-1-3.08A4.52,4.52,0,0,1,107.11,5c.13-.49.27-.74.4-.74s.28.12.42.34a1,1,0,0,0,.85.34,8.38,8.38,0,0,0,2.71-1.12,26.41,26.41,0,0,0,3.34-2.11l.35-.13Zm-2.72,25.61a4.4,4.4,0,0,1,3,1.13,3.42,3.42,0,0,1,1.24,2.64,1.35,1.35,0,0,1-.52,1.12,2.16,2.16,0,0,1-1.37.39,2,2,0,0,1-1.45-.61,5,5,0,0,0-2-1.06,2.14,2.14,0,0,1-1-.94,2.66,2.66,0,0,1-.55-1.35c0-.35.26-.66.79-.93a4.21,4.21,0,0,1,1.9-.39"/><path class="cls-1" d="M183.07,7.34a10.85,10.85,0,0,1,2.87-1.77A9.61,9.61,0,0,0,189,4a1.28,1.28,0,0,1,1.06-.53,4.6,4.6,0,0,1,2.87,1.4,3.84,3.84,0,0,1,1.57,2.82,2.31,2.31,0,0,1-.23,1A17.37,17.37,0,0,0,192.92,14a58.79,58.79,0,0,0-.5,7.63c0,2.64.07,5.11.27,7.44S193,33,193,33.93a18.91,18.91,0,0,1-.51,3.63c-.34,1.52-.8,2.28-1.36,2.28-.27,0-.57-.21-.91-.61s-1.36-1.42-3-3a27.59,27.59,0,0,1-5.23-7,56.69,56.69,0,0,1-3.13,6.12c-1,1.62-1.8,2.42-2.47,2.42s-1-.25-1-.72a.51.51,0,0,1,.46-.53c.47-.12,1.11-1.27,1.93-3.47a53.3,53.3,0,0,0,2.18-8.21,7,7,0,0,1-.38-1.72c0-.28,0-.42.08-.42s.3.28.54.85a9.24,9.24,0,0,0,.45-2.61,16.7,16.7,0,0,0,.06-2.74c-.5.26-.84.94-1,2q-.09.45-.3.45c-.13,0-.2-.35-.19-1.05a4.77,4.77,0,0,1,.39-1.94,12.67,12.67,0,0,1,1.24-2.1c.16-1.09.5-2.89,1.05-5.39a3.76,3.76,0,0,0,.1-.94A2.15,2.15,0,0,0,181.35,8c-.37-.48-.65-.72-.83-.72l-.18,0a7.21,7.21,0,0,0-.81,1.28A20,20,0,0,0,178,12.22c-.3,1.13-.56,2.33-.77,3.61s-.39,2.5-.52,3.66a20.43,20.43,0,0,1-1,5.51c-.47,1.14-.82,2.13-1.07,3s-.55,1.25-.93,1.24a2.15,2.15,0,0,1-1.39-.85A7,7,0,0,1,171,26.42,9,9,0,0,1,170,28a1.45,1.45,0,0,1-.78.49,2.57,2.57,0,0,0-.95.46,1.57,1.57,0,0,1-.74.38c-.14,0-.37-.25-.66-.74a11.55,11.55,0,0,0-1.37-1.75,3.88,3.88,0,0,1-1.09-1.88,16.61,16.61,0,0,1-.14-2.57c0-3,.11-5.5.3-7.41a8.7,8.7,0,0,0,.05-1.05,1.44,1.44,0,0,0-.12-.73,2.39,2.39,0,0,1-.58-1.62c0-.24.17-.36.49-.35a4,4,0,0,1,2.9,1.15,5.32,5.32,0,0,1,1.46,3,3.92,3.92,0,0,1,1.79-.39,2.7,2.7,0,0,1,1.73.63,2,2,0,0,1,.75,1.66,6.2,6.2,0,0,1-.81,2.63,10.08,10.08,0,0,1-2,2.78,13.15,13.15,0,0,0-2,2.42c.33.1,1.08-.35,2.24-1.33a11,11,0,0,0,2-1.93,20.79,20.79,0,0,0,.74-4.1,50.36,50.36,0,0,0,.47-5.06,7,7,0,0,0-.21-2.08c-.15-.43-.31-.65-.51-.65a1.83,1.83,0,0,0-.88.44,1.43,1.43,0,0,1-.84.17l-1.56-.18a4,4,0,0,0-2.2.74l-.42.18c-.11,0-.16-.11-.16-.31a3.53,3.53,0,0,1,.28-1.07,4.45,4.45,0,0,1,.6-1.2,5.06,5.06,0,0,1,1.26-1,7,7,0,0,1,1.39-.76,3.54,3.54,0,0,1,1.09-.15,6.93,6.93,0,0,1,3.46,1.07,8,8,0,0,1,2.91,3,15.5,15.5,0,0,0,1.67-3.48c.24-.71.64-1.07,1.21-1.07l.35.1a7.13,7.13,0,0,0,2,1m-15.41,17.1A30.83,30.83,0,0,1,170,19.59l.14-.45c0-.12-.24-.18-.71-.18a9.73,9.73,0,0,1-1.43-.1,12.08,12.08,0,0,0-.65,3.5,5,5,0,0,0,.3,2.08m14.72,3.39a6,6,0,0,0,2.31-2.45,8.05,8.05,0,0,0,1-2.12c0-.25,0-.39-.14-.42a3.05,3.05,0,0,1-1.24-1.46,4.57,4.57,0,0,1-.48-1.87,2.25,2.25,0,0,1,.76-1.59,5.79,5.79,0,0,0,.77-1.51,6.54,6.54,0,0,0,.55-1.63q0-.33-.18-.33a5.73,5.73,0,0,0-2,1.23,26.79,26.79,0,0,0-.44,3.13c0,.8-.07,2-.08,3.71a20.84,20.84,0,0,1-.79,5.31m7.2,6.33q.33-4,.36-7.95V22.77c0-4.7.14-8.33.35-10.89s.31-3.91.31-4.06c0-.66-.17-1-.53-1l-.4.13a7.72,7.72,0,0,1-3.49,1.32A11.8,11.8,0,0,1,183.87,8c.71.69,1.06,1.18,1.06,1.48a1.59,1.59,0,0,1-.27.87,7,7,0,0,0-.54,2.12,3.4,3.4,0,0,1,2.19-.75,3.26,3.26,0,0,1,2.2.86,2.51,2.51,0,0,1,1,2,3.47,3.47,0,0,1-.55,1.94,12.12,12.12,0,0,0-1.84,3.29.55.55,0,0,0,.35.49,4.21,4.21,0,0,1,1.6,1.64,4.28,4.28,0,0,1,.66,2.1,2.62,2.62,0,0,1-.34,1.46A9.07,9.07,0,0,1,187.16,27a26.48,26.48,0,0,1-3.94,2q3.81,5,6.36,5.13"/><path class="cls-1" d="M253.42,29.49c1.74-1,2.81-1.71,3.22-2a2.13,2.13,0,0,0,.79-1,1.43,1.43,0,0,1,.83-.83,3.22,3.22,0,0,1,1.3-.3,2.5,2.5,0,0,1,1.42.59,2.33,2.33,0,0,1,.8,2,1.12,1.12,0,0,1-.63,1.18,4.66,4.66,0,0,0-1.59,1.42,3.51,3.51,0,0,0-1,1.85c0,.45.53.77,1.58,1A4.28,4.28,0,0,1,262.77,35a4.2,4.2,0,0,1,1,2.72c0,1-.2,1.48-.59,1.47l-.35-.13a11.46,11.46,0,0,0-2.14-.91,17.41,17.41,0,0,0-2.45-.63c-1.79-.34-2.68-.7-2.68-1.09s.22-.36.67-.26a4.11,4.11,0,0,0,.65,0A4.81,4.81,0,0,0,258,36c-1.46-1.38-2.18-2.59-2.18-3.63A6.11,6.11,0,0,1,257,29a21.52,21.52,0,0,0-3.62,2.3c.13,2.42.2,4.48.19,6.21a21.27,21.27,0,0,1-.36,4.2c-.23,1.06-.5,1.6-.81,1.6s-.72-.33-1.22-1a31.45,31.45,0,0,0-4.8-5.07q-2.2,3.1-3,3.11c-.29,0-.63-.45-1-1.33a6.78,6.78,0,0,1-.54-2.75A1.79,1.79,0,0,1,243,34.44a1.62,1.62,0,0,0,1.21-1.6c0-.54-.28-.81-.84-.82l-.38,0a3.27,3.27,0,0,1-.63,0,1.69,1.69,0,0,1-.94-.36,1.23,1.23,0,0,1-.5-1.08,1.64,1.64,0,0,1,.65-1.26,2.61,2.61,0,0,1,1.77-.55A3.09,3.09,0,0,1,246,30.17a4.76,4.76,0,0,1,.78,3.35q2.37-1.5,4-2.39,0-3.25,0-4.56a8.28,8.28,0,0,1-3.64,1.37,5.91,5.91,0,0,1-2.23-.43c-.67-.29-1-.63-1-1s.48-.76,1.44-1.05c2.34-.7,4.16-1.3,5.41-1.8a6.06,6.06,0,0,0,0-1.65A6.92,6.92,0,0,1,248.21,23a3.34,3.34,0,0,1-1.43-.44,3.28,3.28,0,0,1-1-.65.88.88,0,0,1-.19-.58,1.39,1.39,0,0,1,.23-.71,1.21,1.21,0,0,1,.59-.49,19.29,19.29,0,0,0,4.16-2.3,4.71,4.71,0,0,0,0-1.3,14.93,14.93,0,0,1-3,1.75,7.34,7.34,0,0,1-3,.81c-.84,0-1.67.72-2.51,2.18-.16.26-.26.39-.32.39l-.09-.09a6.53,6.53,0,0,1,1-2,14.85,14.85,0,0,1,3.1-3.33,16.31,16.31,0,0,1,4.75-2.72,2.8,2.8,0,0,0,.49-1.32q0-.51-.48-.51l-.43.09-.42.08c-.15,0-.33-.19-.53-.58l-1.62.7a4.41,4.41,0,0,0-1.64,1.42,25.63,25.63,0,0,0-1.82,2.7c-.63,1.05-1.25,2.2-1.86,3.47a57.21,57.21,0,0,0-2.36,5.82q-1.42,3.91-3.46,8.59t-2.62,5.7c-.39.69-.66,1-.79,1s-.31-.25-.53-.76a3.61,3.61,0,0,1-.32-1.52,2.82,2.82,0,0,1,.44-1.47,51.42,51.42,0,0,0,3.76-8q4.26-11.28,6.28-15.23a8,8,0,0,1-2.18.34,3.29,3.29,0,0,1-2.63-1,3.74,3.74,0,0,1-.89-2.55,2.14,2.14,0,0,1,.23-.94,2.38,2.38,0,0,1,.74-.75c.35-.24,1.71-.93,4.1-2.08L247.8,4a1,1,0,0,0,.67-.87,1.39,1.39,0,0,0-.35-1,2.52,2.52,0,0,1-.71-1.66c0-.32.21-.49.61-.48a14.17,14.17,0,0,1,2.5.45,4.46,4.46,0,0,1,2.62,1.45,8.2,8.2,0,0,1,1.22,2.82,2.61,2.61,0,0,1,.8-.09,5.84,5.84,0,0,1,1.58.37,2.15,2.15,0,0,1,1.4,1.21,3.72,3.72,0,0,1,.36,1.3c0,.3-.21.46-.61.49a9.92,9.92,0,0,0-2.19.57c-1.06.35-2,.72-2.84,1.09A4.28,4.28,0,0,1,254.18,12a10.75,10.75,0,0,1,3.67-1,3.78,3.78,0,0,1,2.31.84,13.16,13.16,0,0,1,1.72,1.46,2.34,2.34,0,0,1,.59,1.74c0,1.28-.23,2-.68,2.09s-.7.52-1.12,1.29S259.39,21,258.09,24c-.12.3-.5.59-1.14.89a4,4,0,0,1-1.45.44,3.52,3.52,0,0,1-.65,0,1.82,1.82,0,0,0-.49-.05,2,2,0,0,0-.74.17c-.13,1.26-.19,2.63-.2,4.11m-12.8-19.08a6.83,6.83,0,0,0,2.95-.61q3-1.47,8.19-3.4c.35-.14.54-.31.54-.49s-.43-.27-1.3-.27a35.21,35.21,0,0,0-4.8.55,23.71,23.71,0,0,0-5.56,1.47c-1.38.6-2.06,1.21-2.07,1.82s.68.92,2.05.93m6.78,25.88a10.52,10.52,0,0,0,2.61.91c.34,0,.54-.1.61-.31a31.35,31.35,0,0,0,0-3.62q-1.87,1.68-3.23,3m8.56-15a29.89,29.89,0,0,0,1.63-3.94,9.89,9.89,0,0,0,.6-2.39,1.44,1.44,0,0,0-.34-1,1,1,0,0,0-.77-.41,5.51,5.51,0,0,0-2.86,1.06,17,17,0,0,0-.1,1.7l.49-.09a1.57,1.57,0,0,1,1.31.92,3.09,3.09,0,0,1,.55,1.37c0,.59-.78,1.17-2.33,1.73.14.92.38,1.38.69,1.38a2.48,2.48,0,0,0,1.13-.35"/><path class="cls-1" d="M324.14,30.31a14,14,0,0,0,3.17-.89,4.46,4.46,0,0,0,1.75-1.09,2,2,0,0,1,1.79-.7A3.7,3.7,0,0,1,334,29.34a5.22,5.22,0,0,1,1.21,2.73c0,.27-.39.57-1.18.91a5.38,5.38,0,0,1-2.08.5,5.2,5.2,0,0,1-3.52-1.94c1.28-.44,1.88-.93,1.8-1.46a10.65,10.65,0,0,1-2.65,1.33,4.91,4.91,0,0,0-1.75.83,21.74,21.74,0,0,1,3.47,3.28,5.66,5.66,0,0,0,1.51,1.37,2.18,2.18,0,0,1,1,.9,3,3,0,0,1,.22,1.27.75.75,0,0,1-.38.65,5.21,5.21,0,0,1-1.59.45,13.91,13.91,0,0,1-2.55.22,28.24,28.24,0,0,1-3.48-.31,14.23,14.23,0,0,1-4.14-1.25,12.27,12.27,0,0,1-2.74-1.62,5.33,5.33,0,0,1-1.26-2,11.74,11.74,0,0,1-.7-3.28c-.08-.87-.32-1.35-.71-1.44a13.92,13.92,0,0,0-.72,2.05,4.44,4.44,0,0,0-.23,1.3,4.14,4.14,0,0,1,0,.67,23.75,23.75,0,0,1-.31,2.61c-.19,1.32-.59,2-1.19,2-.3,0-.64-.47-1-1.43a6.59,6.59,0,0,1-.57-2c0-.71.64-2.44,1.91-5.17a4.91,4.91,0,0,1-1.85-.63c-.76-.39-1.15-.8-1.14-1.21s.17-.76.5-.75a2.75,2.75,0,0,1,1.2.36q4.92-1.77,10.24-3.3a8.58,8.58,0,0,0,2.91-1.28.53.53,0,0,0-.31-.67,12.24,12.24,0,0,0-4.6.76,11.74,11.74,0,0,0-3.9,1.87l-.44.18c-.54,0-1.05-.67-1.53-2a6.17,6.17,0,0,1-.54-3,5.9,5.9,0,0,0,0-.74,1.64,1.64,0,0,0-.33-.87,14.17,14.17,0,0,0-1.43-1.62,2.47,2.47,0,0,1-1,1.25,14.15,14.15,0,0,0-3.5,3.78,3.86,3.86,0,0,1,.93,1.63,2.7,2.7,0,0,1-.15.87,11.91,11.91,0,0,0-.64,3.23c0,.82,0,1.46,0,1.9a41.07,41.07,0,0,0,1.59-4.81q-.37,3.48-.79,8t-.39,5.34l0,1.25c0,.47-.12.71-.33.71s-.86-.56-1.62-1.68a6,6,0,0,1-1.11-3.42,3.36,3.36,0,0,1,.09-.85,54.59,54.59,0,0,0,.54-10,34.79,34.79,0,0,1-3.12,3.2c-1.51,1.43-2.48,2.13-2.89,2.13-.18,0-.33-.19-.45-.58a4.23,4.23,0,0,1-.17-1.16,5,5,0,0,1,.48-1.72,4.84,4.84,0,0,1,1.24-1.8,7.27,7.27,0,0,0,0,1,8.63,8.63,0,0,0,2.83-3.7l-.22-.27c-.24,0-.67.37-1.31,1.12a2.9,2.9,0,0,1,2.79-2.45c.69-1,1.41-2.13,2.16-3.38a18,18,0,0,0,1.19-2.13,2.7,2.7,0,0,0,.08-.58.47.47,0,0,0-.27-.45,5.84,5.84,0,0,0-3.05,2l-.4.26c-.3,0-.55-.35-.73-1.05a8.12,8.12,0,0,1-.28-2.23c0-.8.24-1.19.72-1.19.29,0,1-.57,2.26-1.72a6.94,6.94,0,0,0,2-2.54.49.49,0,0,1,.53-.44c.31,0,.85.37,1.64,1.1a7.57,7.57,0,0,1,1.68,2.15,4.08,4.08,0,0,1,.5,1.61c0,.38-.24.69-.72.94a8.11,8.11,0,0,1-2.32.63,4.81,4.81,0,0,1,2,3.49,44.87,44.87,0,0,1,3.24-5.56,1.06,1.06,0,0,1,.41-.93,3,3,0,0,1,1.52-.4c1.64-.14,2.66-.41,3.08-.83a12,12,0,0,0,.55-2.7c0-.52-.13-.81-.4-.87a1.52,1.52,0,0,1-.8-.63A1.84,1.84,0,0,1,318.3,4a1.46,1.46,0,0,1,.31-.94,1.55,1.55,0,0,1,1.26-.37,5.14,5.14,0,0,1,1.38.14q.45.14,1,1.05a25,25,0,0,1,1.59,3.33A3,3,0,0,1,324.93,7a2.64,2.64,0,0,1,1.09.27,6.37,6.37,0,0,1,1.43.95,4.78,4.78,0,0,1,1,1,1.44,1.44,0,0,1,.15.67.87.87,0,0,1-.18.58,16.24,16.24,0,0,1-2.89,1.08c-1.8.59-3.21,1-4.22,1.23a3.14,3.14,0,0,0-.51,1.83,16.57,16.57,0,0,0,4.57-1.19,1.85,1.85,0,0,1,.8-.17,6.2,6.2,0,0,1,3,1.36c1.31.9,2,1.66,2,2.28a1.43,1.43,0,0,1-.8,1.36,4,4,0,0,0-1.4,1.22,19.81,19.81,0,0,1-3.1,3.54.65.65,0,0,0-.49.55,5.54,5.54,0,0,1,2.07,1.2,1.66,1.66,0,0,1,.55,1c0,.23-.22.38-.67.44a22,22,0,0,0-6.44,1.57,6.16,6.16,0,0,1,3.29,2.65m-5.72-16.86a7.12,7.12,0,0,0-2.55-1.22,1,1,0,0,0-.9.47c-.19.31-.33.46-.4.46s-.16-.19-.25-.58A36.12,36.12,0,0,0,311.44,17a4.54,4.54,0,0,1,2.45,1.08,5,5,0,0,1,1.44-1.64,19.37,19.37,0,0,1,2.95-1.64,2.94,2.94,0,0,0,.14-1.34m-3.74,16.14a3.8,3.8,0,0,1,2,1.09,2.48,2.48,0,0,1,.79,1.61,5.8,5.8,0,0,0,.73,2.79c.43.67,1.48,1.19,3.14,1.56a19.69,19.69,0,0,0,3.7.55c.81,0,1.21-.18,1.21-.57l-.08-.31a28.34,28.34,0,0,1-1.42-3.4,4,4,0,0,0-1.66,2.17.77.77,0,0,1-.74.54c-.34,0-.56-.11-.65-.32a2.73,2.73,0,0,0-1-1.37,2.28,2.28,0,0,1-.91-1,2.83,2.83,0,0,1-.27-1.07l.21-.47a3.13,3.13,0,0,0,.34-.71,4.19,4.19,0,0,0,.14-1.14c0-.48,0-1,0-1.65a34.49,34.49,0,0,0-5.5,1.75M317,21.84a9.4,9.4,0,0,1-.34-3.58,1.49,1.49,0,0,0-1.65.71,13.31,13.31,0,0,0,.29,3.22,3,3,0,0,0,1.7-.35m3.83-4.63a6.32,6.32,0,0,1-1.71.71,10.4,10.4,0,0,1-.68,3.52l1.52-.75a5.83,5.83,0,0,0,.87-3.48m3.42,2.66a18.08,18.08,0,0,0,1.1-2,6.8,6.8,0,0,0,.65-1.63c0-.17-.18-.26-.55-.27a9.2,9.2,0,0,0-2,.4,7.06,7.06,0,0,1-.87,3.47,4.36,4.36,0,0,0,.91.1,6.52,6.52,0,0,0,.79,0"/><rect class="cls-3" x="95.22" y="45.72" width="239.68" height="1.47"/></g></g></svg>