<svg xmlns="http://www.w3.org/2000/svg" version="1.1" viewBox="56.51 71.42 2461.08 1339.51" width="428.3836420813327" height="233.43561746228872"><path d="M 2058.506 72.605 C 2018.938 76.990, 1981.879 90.090, 1950.500 110.783 C 1921.520 129.893, 1902.380 148.327, 1859.421 198.500 C 1829.754 233.149, 1814.710 247.208, 1798 255.899 C 1775.911 267.389, 1759.842 267.488, 1720.235 256.378 C 1656.580 238.523, 1635.734 235.070, 1590.885 234.951 C 1566.647 234.886, 1555.039 235.660, 1537.151 238.534 C 1446.829 253.042, 1376.802 304.027, 1340.786 381.500 C 1318.110 430.278, 1309.529 483.388, 1313.487 550.454 C 1314.163 561.908, 1314.991 564.321, 1315.018 554.917 C 1315.061 539.979, 1319.653 517.941, 1326.417 500.216 C 1346.246 448.256, 1385.417 406.971, 1440.500 379.974 C 1459.480 370.672, 1476.596 364.363, 1497.325 359.029 C 1525.955 351.662, 1544.946 349.074, 1576 348.309 C 1601.221 347.688, 1617.250 348.657, 1638.196 352.069 C 1670.441 357.321, 1693.108 364.838, 1741.892 386.456 C 1788.283 407.013, 1803.228 410.459, 1829 406.545 C 1846.367 403.908, 1860.738 398.040, 1878 386.536 C 1890.056 378.502, 1901.057 369.101, 1922.893 348.171 C 1954.640 317.740, 1968.391 305.614, 1986 292.519 C 2038.399 253.552, 2095.034 232.897, 2173 224.320 C 2193.884 222.023, 2260.225 221.708, 2277 223.826 C 2300.103 226.744, 2326.747 232.420, 2340.810 237.421 C 2345.103 238.947, 2345.117 238.945, 2344.464 236.727 C 2344.103 235.502, 2340.507 227.750, 2336.472 219.500 C 2302.269 149.561, 2249.298 104.043, 2177 82.469 C 2166.226 79.254, 2147.937 75.542, 2132.500 73.436 C 2115.848 71.165, 2075.578 70.712, 2058.506 72.605 M 606.446 1199.483 C 600.059 1202.689, 596.790 1207.485, 596.208 1214.503 C 595.288 1225.604, 602.625 1233.984, 613.984 1234.805 C 621.580 1235.355, 626.078 1233.763, 630.378 1229.004 C 634.285 1224.679, 635.478 1220.330, 634.773 1212.986 C 633.532 1200.079, 619.031 1193.166, 606.446 1199.483 M 2049.007 1198.593 C 2041.431 1201.879, 2037.680 1207.679, 2037.672 1216.122 C 2037.662 1226.514, 2044.679 1234.060, 2055.050 1234.810 C 2066.643 1235.649, 2075.033 1229.633, 2076.570 1219.379 C 2078.890 1203.913, 2063.501 1192.308, 2049.007 1198.593 M 2166.152 1197.976 C 2146.229 1200.242, 2131.352 1209.352, 2124.116 1223.719 C 2119.109 1233.660, 2119.043 1234.889, 2118.998 1319.756 C 2118.950 1407.727, 2118.601 1403.159, 2125.625 1406.492 C 2129.601 1408.379, 2141.771 1408.764, 2147.500 1407.184 L 2150.500 1406.356 2150.758 1351.178 L 2151.017 1296 2176.859 1296 C 2205.171 1296, 2208.152 1295.541, 2210.602 1290.803 C 2212.471 1287.189, 2212.609 1278.326, 2210.871 1273.519 L 2209.598 1270 2179.669 1270 L 2149.739 1270 2150.281 1256.750 C 2150.580 1249.463, 2151.365 1241.701, 2152.027 1239.503 C 2153.849 1233.453, 2160.347 1227.536, 2167.435 1225.476 C 2176.112 1222.954, 2193.751 1223.824, 2204.390 1227.299 L 2212.280 1229.876 2214.107 1227.688 C 2218.512 1222.415, 2219.040 1213.235, 2215.235 1208.087 C 2212.708 1204.669, 2206.777 1201.437, 2199.595 1199.567 C 2192.284 1197.662, 2175.804 1196.879, 2166.152 1197.976 M 526.250 1203.262 L 522 1204.284 522 1233.749 C 522 1261.402, 521.892 1263.172, 520.250 1262.538 C 507.245 1257.513, 494.380 1255.860, 479.244 1257.268 C 449.515 1260.034, 427.930 1278.346, 419.773 1307.722 C 417.929 1314.361, 417.606 1318.209, 417.565 1334 C 417.509 1355.577, 418.435 1360.273, 425.633 1374.929 C 434.098 1392.163, 448.278 1402.909, 469.500 1408.171 C 481.314 1411.100, 507.659 1411.405, 518.237 1408.735 C 535.131 1404.471, 548.124 1397.355, 552.444 1390 C 554.469 1386.552, 554.504 1385.220, 554.780 1300.500 C 555.099 1202.875, 555.439 1207.465, 547.628 1203.918 C 543.034 1201.832, 533.424 1201.537, 526.250 1203.262 M 1366.250 1203.108 C 1363.912 1203.663, 1361.999 1204.429, 1361.998 1204.809 C 1361.870 1247.457, 1361.717 1261.632, 1361.377 1262.189 C 1361.146 1262.568, 1358.380 1261.986, 1355.229 1260.897 C 1345.775 1257.627, 1341.332 1256.944, 1329.137 1256.883 C 1314.526 1256.810, 1305.429 1258.763, 1293.315 1264.575 C 1275.229 1273.251, 1263.159 1289.826, 1258.559 1312.300 C 1256.439 1322.654, 1256.341 1346.075, 1258.377 1355.500 C 1261.684 1370.810, 1266.883 1380.864, 1276.500 1390.550 C 1287.542 1401.671, 1300.854 1407.578, 1320.426 1410.042 C 1340.129 1412.522, 1360.506 1409.756, 1375.756 1402.531 C 1385.159 1398.076, 1389.670 1394.568, 1392.086 1389.831 C 1393.982 1386.115, 1394.041 1383.362, 1394.028 1298.335 C 1394.013 1202.740, 1394.342 1208.236, 1388.402 1204.344 C 1385.307 1202.316, 1372.576 1201.605, 1366.250 1203.108 M 106.500 1214.102 C 84.901 1214.969, 68.310 1218.547, 63.477 1223.381 C 62.669 1224.188, 61.556 1226.038, 61.004 1227.490 C 59.578 1231.240, 59.635 1389.904, 61.064 1393.685 C 65.105 1404.382, 79.546 1408.737, 114.100 1409.681 C 137.917 1410.331, 149.211 1409.133, 163.640 1404.423 C 200.408 1392.420, 220.678 1363.603, 223.517 1319.295 C 224.928 1297.282, 220.967 1276.381, 212.186 1259.500 C 206.283 1248.152, 192.161 1233.407, 182 1227.980 C 159.909 1216.181, 141.052 1212.715, 106.500 1214.102 M 1892.750 1216.276 L 1887 1217.227 1887.016 1305.864 L 1887.033 1394.500 1889.266 1398.425 C 1890.659 1400.872, 1893.160 1403.226, 1895.907 1404.675 L 1900.315 1407 1949.907 1406.985 C 1987.277 1406.974, 2000.092 1406.666, 2001.904 1405.735 C 2008.201 1402.499, 2010.594 1393.314, 2007.536 1384.109 L 2005.839 1379 1963.420 1379 L 1921 1379 1920.918 1304.750 C 1920.873 1263.912, 1920.623 1229.192, 1920.363 1227.594 C 1919.617 1223.009, 1917.214 1219.162, 1914.085 1217.544 C 1910.430 1215.654, 1900.196 1215.046, 1892.750 1216.276 M 991.707 1219.283 L 986.913 1220.500 986.956 1298.891 C 986.986 1352.710, 987.344 1378.566, 988.101 1381.375 C 993.045 1399.737, 1008.219 1409.429, 1034 1410.694 C 1055.596 1411.753, 1069.174 1405.574, 1070.730 1393.978 C 1071.289 1389.812, 1069.857 1384.634, 1067.229 1381.318 L 1065.500 1379.135 1058 1381.676 C 1051.611 1383.840, 1049.167 1384.158, 1041.500 1383.822 C 1030.036 1383.320, 1024.608 1380.697, 1021.250 1374.038 C 1019.029 1369.634, 1019 1369.061, 1019 1329.788 L 1019 1290 1040.550 1290 C 1063.670 1290, 1066.613 1289.460, 1069.132 1284.753 C 1070.719 1281.788, 1070.714 1272.419, 1069.123 1267.750 L 1067.845 1264 1043.422 1264 L 1019 1264 1019 1246.401 C 1019 1226.777, 1018.135 1223.156, 1012.790 1220.391 C 1008.868 1218.363, 997.653 1217.774, 991.707 1219.283 M 1491.217 1219.561 C 1486.058 1223.174, 1484.404 1232.971, 1487.602 1240.964 L 1489.205 1244.969 1516.852 1245.234 L 1544.500 1245.500 1544.733 1322.266 C 1544.991 1407.551, 1544.678 1403.714, 1551.620 1406.615 C 1555.794 1408.359, 1568.091 1408.591, 1573.868 1407.036 L 1578 1405.923 1578 1325.461 L 1578 1245 1602.935 1245 C 1616.649 1245, 1629.001 1244.570, 1630.383 1244.045 C 1634.586 1242.446, 1636.495 1238.388, 1636.498 1231.047 C 1636.499 1227.446, 1635.883 1223.037, 1635.129 1221.250 L 1633.757 1218 1563.601 1218 C 1501.646 1218, 1493.185 1218.182, 1491.217 1219.561 M 106 1241.596 C 104.075 1241.822, 100.588 1242.258, 98.250 1242.565 L 94 1243.123 94 1311.502 C 94 1355.841, 94.350 1380.098, 94.996 1380.498 C 95.544 1380.836, 101.430 1381.625, 108.076 1382.250 C 130.208 1384.332, 151.142 1380.503, 163.280 1372.151 C 173.977 1364.792, 182.679 1351.606, 186.481 1337 C 189.069 1327.053, 189.681 1302.543, 187.606 1291.936 C 185.043 1278.833, 178.735 1266.879, 170.074 1258.709 C 162.294 1251.369, 152.499 1246.068, 141.985 1243.507 C 135.678 1241.970, 113.045 1240.768, 106 1241.596 M 734.235 1257.189 C 701.010 1260.863, 677.421 1281.895, 670.824 1313.729 C 668.142 1326.671, 668.688 1348.549, 671.978 1359.973 C 677.661 1379.703, 689.438 1394.319, 706.112 1402.333 C 719.432 1408.735, 728.161 1410.490, 746.500 1410.453 C 763.368 1410.419, 770.378 1409.022, 780.404 1403.694 C 788.121 1399.594, 792.001 1394.374, 791.996 1388.100 C 791.992 1383.008, 789.510 1378.036, 785.739 1375.565 C 783.530 1374.117, 782.940 1374.243, 776.224 1377.593 C 766.475 1382.456, 760.121 1383.974, 749.460 1383.988 C 725.082 1384.020, 709.395 1372.317, 703.900 1350 C 703.128 1346.865, 702.576 1339.554, 702.617 1333 C 702.698 1320.008, 705.074 1311.234, 711.025 1301.961 C 723.172 1283.032, 749.411 1277.684, 774.026 1289.121 L 783.059 1293.318 786.046 1290.456 C 792.445 1284.325, 792.007 1274.949, 785.026 1268.643 C 774.527 1259.158, 755.415 1254.848, 734.235 1257.189 M 872.500 1256.740 C 859.799 1257.503, 845.181 1260.927, 836.905 1265.079 C 834.928 1266.071, 831.842 1268.555, 830.047 1270.600 C 827.004 1274.065, 826.811 1274.713, 827.204 1280.143 C 827.542 1284.822, 828.236 1286.711, 830.728 1289.735 C 832.435 1291.806, 834.207 1293.396, 834.666 1293.270 C 835.125 1293.143, 839.755 1291.412, 844.954 1289.423 C 857.613 1284.582, 866.501 1282.823, 878.500 1282.788 C 886.087 1282.765, 890.143 1283.284, 895.308 1284.937 C 907.079 1288.705, 912 1295.735, 912 1308.787 C 912 1316.053, 914.698 1315.130, 885 1318.023 C 860.816 1320.378, 850.015 1322.555, 841.113 1326.867 C 829.138 1332.668, 822.781 1339.870, 819.471 1351.387 C 817.140 1359.494, 817.833 1374.297, 820.914 1382.247 C 825.504 1394.089, 837.330 1403.214, 854.545 1408.196 C 861.638 1410.248, 864.614 1410.498, 882 1410.497 C 904.293 1410.495, 912.835 1408.912, 927.500 1402.064 C 938.301 1397.021, 943.559 1391.377, 944.504 1383.812 C 945.615 1374.921, 944.422 1298.103, 943.095 1293.115 C 941.115 1285.670, 936.717 1277.826, 931.713 1272.815 C 926.582 1267.676, 914.309 1261.191, 905.500 1258.963 C 900.444 1257.685, 879.863 1256.298, 872.500 1256.740 M 1158 1257.110 C 1136.023 1258.385, 1118.784 1267.445, 1106.428 1284.211 C 1101.343 1291.111, 1096.539 1302.308, 1094.496 1312.020 C 1092.416 1321.907, 1092.431 1343.320, 1094.525 1353.507 C 1100.308 1381.638, 1119.194 1401.123, 1147.500 1408.160 C 1159.816 1411.221, 1184.749 1411.449, 1196 1408.603 C 1214.704 1403.871, 1225 1395.863, 1225 1386.049 C 1225 1382.093, 1222.584 1377.136, 1219.313 1374.382 L 1216.797 1372.263 1208.141 1376.590 C 1195.428 1382.945, 1188.738 1384.509, 1174.500 1384.453 C 1152.836 1384.369, 1139.072 1377.760, 1131.120 1363.624 C 1128.273 1358.562, 1125.472 1351.182, 1126.150 1350.529 C 1126.343 1350.344, 1147.409 1347.190, 1172.965 1343.520 C 1198.521 1339.850, 1220.796 1336.265, 1222.465 1335.553 C 1224.134 1334.840, 1226.623 1333.040, 1227.996 1331.553 C 1230.120 1329.251, 1230.542 1327.702, 1230.826 1321.174 C 1231.877 1297.058, 1218.408 1274.094, 1197.234 1263.900 C 1184.646 1257.839, 1174.798 1256.134, 1158 1257.110 M 1701.906 1257.152 C 1676.988 1259.617, 1656.695 1273.206, 1646.668 1294.142 C 1640.711 1306.579, 1638.972 1313.936, 1638.312 1329.500 C 1636.850 1363.952, 1650.148 1390.140, 1675.392 1402.521 C 1687.206 1408.316, 1693.944 1409.998, 1708 1410.664 C 1744.509 1412.393, 1771.421 1394.150, 1782.001 1360.500 C 1783.543 1355.596, 1784.397 1349.607, 1784.851 1340.500 C 1785.887 1319.735, 1783.761 1307.850, 1776.331 1292.873 C 1771.233 1282.598, 1758.432 1269.866, 1748 1264.695 C 1734.701 1258.102, 1718.727 1255.488, 1701.906 1257.152 M 2292 1256.769 C 2284.761 1257.327, 2274.224 1260.346, 2266.195 1264.163 C 2248.029 1272.798, 2234.947 1290.380, 2230.363 1312.322 C 2228.082 1323.235, 2228.389 1344.732, 2230.982 1355.702 C 2237.351 1382.651, 2256.075 1401.473, 2283 1407.992 C 2313.743 1415.434, 2351.614 1407.757, 2358.955 1392.594 C 2360.080 1390.270, 2361 1387.395, 2361 1386.205 C 2361 1382.380, 2357.856 1376.034, 2354.928 1373.948 L 2352.083 1371.923 2348.161 1374.398 C 2333.860 1383.426, 2313.365 1387.055, 2296.665 1383.517 C 2279.586 1379.898, 2268.485 1370.584, 2263.375 1355.586 C 2262.495 1353.004, 2261.941 1350.726, 2262.144 1350.523 C 2262.347 1350.320, 2283.435 1347.168, 2309.006 1343.520 C 2357.468 1336.605, 2360.490 1335.904, 2364.397 1330.671 C 2367.187 1326.933, 2367.650 1317.330, 2365.543 1306.847 C 2360.779 1283.141, 2344.062 1265.665, 2319.791 1259.020 C 2313.027 1257.169, 2300.254 1256.134, 2292 1256.769 M 304.500 1258.964 C 290.437 1262.688, 279.234 1269.375, 270.535 1279.237 C 265.208 1285.277, 257.749 1299.717, 255.421 1308.500 C 252.918 1317.944, 252.408 1340.614, 254.455 1351.500 C 258.874 1375.009, 271.861 1392.767, 291.500 1402.155 C 305.304 1408.754, 313.004 1410.300, 332.500 1410.387 C 347.188 1410.453, 350.635 1410.155, 357.846 1408.200 C 371.145 1404.593, 380.327 1399.136, 383.536 1392.931 C 386.653 1386.903, 384.793 1378.343, 379.455 1374.143 L 376.870 1372.110 370.685 1375.492 C 342.524 1390.895, 307.229 1386.897, 293.401 1366.739 C 290.493 1362.499, 285.476 1351.149, 286.215 1350.478 C 286.372 1350.336, 307.425 1347.216, 333 1343.546 C 382.854 1336.391, 386.673 1335.466, 389.577 1329.851 C 390.585 1327.902, 391.100 1324.076, 391.100 1318.540 C 391.100 1289.552, 371.564 1265.297, 342.742 1258.501 C 333.671 1256.363, 313.397 1256.608, 304.500 1258.964 M 605 1260.288 L 599.500 1261.500 599.500 1330.545 C 599.500 1407.997, 599.062 1403.449, 606.828 1406.708 C 610.840 1408.392, 623.428 1408.691, 628.500 1407.224 L 631.500 1406.356 631.757 1337.642 C 632.040 1261.794, 632.272 1264.743, 625.778 1261.385 C 621.663 1259.257, 611.991 1258.746, 605 1260.288 M 2046.500 1260.294 L 2041.500 1261.514 2041.243 1329.841 C 2040.956 1406.228, 2040.697 1403.209, 2047.803 1406.409 C 2052.283 1408.427, 2065.098 1408.783, 2070.391 1407.036 L 2074.065 1405.823 2073.783 1336.984 C 2073.503 1268.947, 2073.476 1268.112, 2071.410 1265.323 C 2070.261 1263.770, 2068.055 1261.880, 2066.508 1261.123 C 2062.658 1259.237, 2052.548 1258.818, 2046.500 1260.294 M 311.909 1283.832 C 301.128 1287.405, 293.787 1293.992, 288.877 1304.500 C 286.378 1309.847, 283.157 1324.490, 284.241 1325.574 C 284.646 1325.980, 353.068 1316.575, 357.875 1315.453 C 359.994 1314.959, 360.194 1314.481, 359.729 1311.017 C 358.390 1301.036, 350.343 1289.783, 341.424 1285.419 C 333.994 1281.784, 320.309 1281.048, 311.909 1283.832 M 1152.929 1283.367 C 1139.030 1287.115, 1128.494 1299.028, 1125.130 1314.799 C 1123.832 1320.886, 1123.657 1326.015, 1124.750 1325.968 C 1128.757 1325.794, 1199.147 1315.186, 1199.655 1314.679 C 1200.919 1313.414, 1196.918 1301.715, 1193.417 1296.441 C 1189.005 1289.794, 1184.893 1286.659, 1177.176 1284.059 C 1170.226 1281.718, 1160.117 1281.429, 1152.929 1283.367 M 2288.500 1283.346 C 2278.343 1286.709, 2269.598 1293.986, 2265.088 1302.827 C 2262.408 1308.080, 2260 1317.307, 2260 1322.321 C 2260 1326.173, 2260.041 1326.215, 2263.250 1325.653 C 2265.037 1325.339, 2281.125 1323.031, 2299 1320.523 C 2316.875 1318.015, 2332.559 1315.726, 2333.853 1315.436 C 2335.968 1314.964, 2336.138 1314.535, 2335.534 1311.205 C 2334.600 1306.049, 2330.614 1297.563, 2326.960 1292.949 C 2325.067 1290.560, 2321.355 1287.823, 2317.295 1285.825 C 2311.555 1282.999, 2309.527 1282.543, 2301.602 1282.300 C 2295.982 1282.128, 2290.970 1282.528, 2288.500 1283.346 M 481 1284.421 C 466.665 1288.516, 458.936 1296.401, 453.371 1312.609 C 450.985 1319.558, 450.656 1322.052, 450.612 1333.500 C 450.538 1352.804, 453.384 1362.297, 461.966 1371.371 C 470.440 1380.330, 480.041 1383.938, 495.500 1383.970 C 504.933 1383.990, 509.378 1383.133, 517.250 1379.778 L 522 1377.754 522 1334.492 L 522 1291.230 519.550 1289.625 C 518.203 1288.742, 513.736 1286.890, 509.624 1285.510 C 501.126 1282.657, 488.812 1282.189, 481 1284.421 M 1320.024 1284.603 C 1306.216 1288.314, 1297.462 1297.789, 1292.363 1314.543 C 1289.563 1323.743, 1289.751 1346.119, 1292.707 1355.514 C 1298.504 1373.937, 1310.901 1382.802, 1332.217 1383.768 C 1343.493 1384.280, 1348.777 1383.442, 1357.237 1379.803 L 1362 1377.754 1362 1334.394 L 1362 1291.034 1357.017 1288.509 C 1346.281 1283.068, 1331.531 1281.511, 1320.024 1284.603 M 1697.733 1285.112 C 1686.320 1289.200, 1676.935 1300.940, 1673.356 1315.603 C 1671.160 1324.600, 1671.163 1343.060, 1673.360 1352.259 C 1676.633 1365.958, 1683.262 1375.034, 1693.771 1380.208 C 1700.160 1383.353, 1700.972 1383.500, 1711.979 1383.500 C 1722.535 1383.500, 1723.971 1383.269, 1729.125 1380.738 C 1735.996 1377.363, 1743.303 1369.763, 1746.600 1362.562 C 1753.914 1346.586, 1753.709 1320.503, 1746.143 1304.588 C 1742.005 1295.884, 1737.016 1290.625, 1729.287 1286.820 C 1723.397 1283.921, 1721.590 1283.528, 1713.079 1283.302 C 1705.460 1283.099, 1702.320 1283.469, 1697.733 1285.112 M 899.500 1340.673 C 897.850 1340.878, 890.650 1341.696, 883.500 1342.490 C 876.350 1343.284, 868.111 1344.649, 865.190 1345.523 C 852.390 1349.355, 846.609 1361.364, 852.102 1372.711 C 856.416 1381.622, 865.531 1385.391, 882.500 1385.282 C 893.508 1385.212, 903.385 1383.404, 909.206 1380.394 L 912 1378.949 912 1359.474 L 912 1340 907.250 1340.150 C 904.638 1340.232, 901.150 1340.468, 899.500 1340.673" stroke="none" fill="#b3569f" fill-rule="evenodd"/><path d="M 2346.347 241.750 C 2348.765 246.507, 2355.634 266.973, 2359.352 280.500 C 2374.825 336.791, 2378.960 404.586, 2371.428 478.500 C 2365.225 539.374, 2351.946 601.871, 2332.334 662.500 C 2325.154 684.698, 2312.189 719.597, 2305.959 733.500 C 2304.973 735.700, 2303.297 739.525, 2302.235 742 C 2293.736 761.808, 2276.360 796.557, 2265.481 815.500 C 2239.394 860.928, 2208.159 903.797, 2178.662 934.654 C 2174.900 938.588, 2171.241 942.639, 2170.529 943.655 C 2168.948 945.912, 2139.985 972.693, 2131 980.207 C 2059.917 1039.646, 1974.175 1076.999, 1886 1086.939 L 1877.500 1087.897 1888.500 1087.423 C 1894.550 1087.162, 1907.600 1086.041, 1917.500 1084.932 C 2044.300 1070.725, 2162.349 1024.481, 2261.500 950.172 C 2325.674 902.077, 2381.818 842.489, 2424.294 777.392 C 2503.684 655.721, 2534.827 522.030, 2508.335 416.618 C 2489.715 342.532, 2443.671 284.783, 2377.500 252.526 C 2364.788 246.329, 2347.453 239, 2345.507 239 C 2345.200 239, 2345.578 240.238, 2346.347 241.750 M 1270 589.700 C 1269.725 721.810, 1269.838 829.562, 1270.252 829.148 C 1270.666 828.734, 1270.891 720.644, 1270.752 588.948 L 1270.500 349.500 1270 589.700 M 1796.247 663.050 C 1796.086 771.181, 1795.654 829.017, 1795.004 829.804 C 1794.435 830.490, 1794.651 830.452, 1795.507 829.715 C 1796.830 828.574, 1796.976 808.981, 1796.750 662.961 L 1796.494 497.500 1796.247 663.050 M 868.395 667.500 C 868.396 675.200, 868.553 678.218, 868.743 674.206 C 868.934 670.195, 868.932 663.895, 868.741 660.206 C 868.549 656.518, 868.393 659.800, 868.395 667.500 M 239.250 781.750 C 267.713 781.897, 314.288 781.897, 342.750 781.750 C 371.213 781.602, 347.925 781.482, 291 781.482 C 234.075 781.482, 210.788 781.602, 239.250 781.750 M 73.872 866.250 C 75.169 867.904, 82.748 867.986, 211.372 867.754 L 347.500 867.507 211.598 867.250 C 104.926 867.048, 75.353 866.725, 74.098 865.746 C 72.683 864.642, 72.657 864.700, 73.872 866.250 M 1083.250 879.743 C 1087.513 879.931, 1094.487 879.931, 1098.750 879.743 C 1103.013 879.556, 1099.525 879.402, 1091 879.402 C 1082.475 879.402, 1078.987 879.556, 1083.250 879.743" stroke="none" fill="#5ac3be" fill-rule="evenodd"/><path d="M 2190 223.062 C 2106.157 229.107, 2042.842 250.555, 1987 291.827 C 1968.372 305.594, 1961.387 311.775, 1916.304 354.381 C 1896.555 373.045, 1886.493 381.266, 1873.215 389.588 C 1854.705 401.189, 1837.961 406.672, 1818 407.669 C 1797.213 408.707, 1783.453 404.872, 1741.892 386.456 C 1687.023 362.142, 1663.160 354.887, 1621.500 349.856 C 1606.994 348.104, 1559.966 348.094, 1546 349.839 C 1505.476 354.906, 1472.334 364.372, 1440.500 379.974 C 1400.126 399.762, 1369.307 426.162, 1346.988 460.079 C 1335.623 477.350, 1325.794 498.973, 1320.538 518.268 C 1312.196 548.889, 1313.107 591.971, 1323.091 639 C 1328.134 662.754, 1337.092 694.581, 1346.030 720.500 C 1360.161 761.481, 1382.797 806.499, 1408.366 844.476 C 1452.704 910.330, 1514.777 968.749, 1587 1012.597 C 1607.115 1024.809, 1645.992 1044.211, 1667.550 1052.796 C 1717.095 1072.527, 1766.760 1084.497, 1814 1088.093 C 1830.771 1089.370, 1867.402 1088.799, 1884.500 1086.994 C 1972.566 1077.700, 2059.393 1040.085, 2131 980.207 C 2139.985 972.693, 2168.948 945.912, 2170.529 943.655 C 2171.241 942.639, 2174.900 938.588, 2178.662 934.654 C 2208.159 903.797, 2239.394 860.928, 2265.481 815.500 C 2276.360 796.557, 2293.736 761.808, 2302.235 742 C 2303.297 739.525, 2304.973 735.700, 2305.959 733.500 C 2312.189 719.597, 2325.154 684.698, 2332.334 662.500 C 2351.946 601.871, 2365.225 539.374, 2371.428 478.500 C 2380.138 393.027, 2373.363 317.378, 2351.420 255.117 C 2349.020 248.306, 2346.403 241.737, 2345.604 240.519 C 2342.959 236.482, 2312.677 228.849, 2283.678 224.909 C 2271.585 223.266, 2261.792 222.777, 2235.500 222.504 C 2217.350 222.315, 2196.875 222.566, 2190 223.062 M 1190 303.633 C 1188.625 303.831, 1181.987 304.744, 1175.250 305.662 L 1163 307.331 1163 383.233 C 1163 455.050, 1162.906 459.107, 1161.250 458.620 C 1129.019 449.140, 1078.719 445.609, 1045.196 450.471 C 962.150 462.518, 899.669 517.682, 877.515 598.515 C 870.828 622.916, 869.556 633.955, 869.571 667.500 C 869.586 700.656, 870.750 711.085, 877.100 734.984 C 896.178 806.781, 949.375 856.118, 1025.356 872.480 C 1049.490 877.678, 1058.403 878.482, 1091.500 878.452 C 1125.272 878.421, 1134.703 877.545, 1161.500 871.951 C 1194.887 864.981, 1233.819 850.042, 1262.972 833.016 L 1270 828.912 1269.983 586.706 C 1269.964 323.747, 1270.249 337.345, 1264.516 326.031 C 1258.977 315.100, 1248.048 307.711, 1232.792 304.581 C 1225.703 303.127, 1197.798 302.509, 1190 303.633 M 2023.983 448.072 C 1958.294 452.533, 1907.712 479.256, 1887.276 520.294 C 1877.169 540.590, 1873.262 563.854, 1875.895 588.063 C 1881.185 636.694, 1907.783 666.498, 1963.130 685.811 C 1969.527 688.044, 1992.106 694.173, 2013.305 699.432 C 2062.914 711.740, 2074.835 716.139, 2086.702 726.520 C 2102.015 739.916, 2102.795 764.146, 2088.370 778.367 C 2077.075 789.502, 2057.754 794.988, 2029.801 794.996 C 1985.817 795.009, 1937.223 779.728, 1906.744 756.298 L 1900.988 751.874 1891.113 761.687 C 1880.249 772.482, 1875.142 779.729, 1871.411 789.641 C 1856.352 829.649, 1893.848 862.101, 1970 874.968 C 1991.731 878.640, 2003.085 879.473, 2031 879.440 C 2068.396 879.396, 2090.032 876.377, 2116.822 867.464 C 2141.276 859.327, 2158.921 848.979, 2173.994 833.936 C 2196.175 811.797, 2206.289 785.317, 2206.242 749.500 C 2206.178 699.394, 2185.145 665.003, 2141.072 642.939 C 2121.430 633.106, 2103.139 627.274, 2058.500 616.612 C 2025.916 608.828, 2014.270 605.211, 2002.753 599.294 C 1987.758 591.591, 1980.966 581.303, 1982.306 568.322 C 1983.006 561.538, 1986.768 553.299, 1991.179 548.888 C 2006.556 533.511, 2046.132 528.345, 2089.266 536.084 C 2113.939 540.511, 2137.544 547.854, 2153.914 556.195 L 2165.500 562.098 2169.400 557.799 C 2221.891 499.935, 2179.957 454.765, 2067.500 448.036 C 2048.668 446.910, 2040.998 446.916, 2023.983 448.072 M 487 456.071 C 474.892 457.531, 462.423 461.594, 448 468.777 C 435.592 474.956, 434.527 475.702, 434.839 478 C 435.025 479.375, 437.642 489.725, 440.653 501 C 471.139 615.146, 517.503 728.765, 577.741 836.948 L 590.241 859.397 588.574 862.448 C 585.937 867.277, 570.342 888.800, 560.597 901.061 C 539.599 927.479, 517.280 951.040, 496.841 968.363 C 486.032 977.524, 485.261 978.414, 485.994 980.863 C 495.374 1012.172, 513.800 1031.823, 536.750 1034.992 C 548.641 1036.634, 561.655 1034.131, 574.500 1027.733 C 612.488 1008.811, 657.116 957.311, 699.634 883.330 C 740.322 812.534, 795.874 678.221, 821.370 589 C 833.861 545.288, 839.535 511.137, 837.044 494.666 C 833.587 471.811, 816.519 458.878, 786.016 456.001 C 774.916 454.955, 758.710 455.805, 745 458.154 C 734.489 459.954, 734.345 460.061, 733.538 466.678 C 732.645 473.995, 725.873 510.933, 721.991 529.657 C 705.958 607.001, 680.911 684.860, 650.801 750.953 L 647.405 758.406 636.780 732.453 C 601.222 645.601, 583.188 595.679, 557.547 513.123 C 548.752 484.807, 545.142 477.199, 536.865 469.536 C 524.710 458.282, 507.406 453.610, 487 456.071 M 1448 455.591 C 1446.625 455.830, 1440.325 456.717, 1434 457.563 C 1427.675 458.409, 1421.713 459.334, 1420.750 459.618 C 1419.095 460.107, 1419.001 466.906, 1419.011 584.317 C 1419.020 686.988, 1419.278 710.925, 1420.503 722.500 C 1425.669 771.318, 1440.563 805.970, 1468.008 833.022 C 1492.183 856.851, 1524.595 871.104, 1569.500 877.653 C 1584.471 879.837, 1629.773 880.164, 1646.500 878.211 C 1694.932 872.553, 1737.494 860.072, 1776.966 839.950 C 1784.410 836.156, 1791.971 832.141, 1793.770 831.028 L 1797.040 829.005 1796.770 660.753 L 1796.500 492.500 1794.193 486 C 1788.206 469.127, 1776.942 460.316, 1756.409 456.444 C 1742.566 453.834, 1707.228 455.468, 1690.250 459.503 L 1688 460.038 1688 618.472 L 1688 776.906 1678.250 780.030 C 1656.363 787.044, 1637.846 790.002, 1615.872 789.996 C 1569.270 789.984, 1546.575 776.222, 1535.650 741.352 C 1528.654 719.023, 1528 706.385, 1528 593.515 C 1528 501.612, 1527.914 496.982, 1526.062 489.741 C 1524.995 485.572, 1523.160 480.275, 1521.984 477.968 C 1519.068 472.253, 1511.841 465.453, 1505.027 462.014 C 1494.830 456.866, 1489.133 455.833, 1469 455.481 C 1458.825 455.302, 1449.375 455.352, 1448 455.591 M 98 461.037 C 76.057 463.652, 63.880 476.323, 60.995 499.544 C 59.670 510.205, 61.042 524.472, 64.561 536.614 C 65.902 541.243, 67 545.246, 67 545.510 C 67 545.774, 110.832 546.105, 164.405 546.245 L 261.810 546.500 253.655 556.172 C 249.170 561.491, 239.875 572.473, 233 580.576 C 226.125 588.678, 217.575 598.779, 214 603.022 C 210.425 607.266, 197.590 622.384, 185.479 636.619 C 173.367 650.853, 160.033 666.550, 155.847 671.500 C 148.573 680.102, 122.803 710.497, 113.101 721.916 C 110.571 724.895, 101.371 735.695, 92.657 745.916 C 83.944 756.137, 75.105 766.990, 73.017 770.034 C 51.573 801.282, 50.964 838.780, 71.512 862.750 L 75.156 867 213.828 866.983 C 366.020 866.964, 360.028 867.191, 372.728 860.955 C 384.757 855.048, 392.532 844.440, 395.659 829.668 C 397.390 821.495, 397.081 802.633, 395.006 789.755 L 393.758 782.009 290.941 781.755 L 188.125 781.500 198.312 769.404 C 207 759.089, 220.823 742.815, 272.130 682.500 C 276.341 677.550, 289.396 662.216, 301.143 648.424 C 312.889 634.632, 329.700 614.862, 338.500 604.490 C 347.300 594.119, 356.682 583.128, 359.349 580.066 C 374.198 563.021, 383.854 546.232, 388.145 530 C 391.074 518.920, 391.335 498.877, 388.680 489 C 386.385 480.464, 381.817 470.789, 377.260 464.813 L 373.589 460 239.045 460.131 C 165.045 460.204, 101.575 460.611, 98 461.037 M 1080.500 536.030 C 1067.986 537.280, 1056.452 540.627, 1044.500 546.479 C 1013.271 561.769, 993.082 590.514, 983.935 632.712 C 980.663 647.806, 980.129 679.890, 982.848 698 C 987.235 727.223, 995.312 745.731, 1010.893 762.263 C 1026.691 779.025, 1049.495 788.610, 1079.822 791.235 C 1101.955 793.151, 1129.931 789.549, 1152.500 781.878 L 1162.500 778.479 1162.754 663.791 L 1163.008 549.103 1151.912 545.516 C 1138.085 541.046, 1131.233 539.446, 1117.958 537.591 C 1103.940 535.632, 1090.215 535.060, 1080.500 536.030" stroke="none" fill="#0ea0a6" fill-rule="evenodd"/><path d="M 0 741 L 0 1482.001 1287.250 1481.750 L 2574.500 1481.500 2574.751 740.750 L 2575.001 -0 1287.501 -0 L 0 0 0 741 M 0.497 741.500 C 0.497 1149.050, 0.611 1315.625, 0.750 1111.668 C 0.889 907.710, 0.889 574.260, 0.750 370.668 C 0.611 167.075, 0.497 333.950, 0.497 741.500 M 2058.506 72.605 C 2018.938 76.990, 1981.879 90.090, 1950.500 110.783 C 1921.520 129.893, 1902.380 148.327, 1859.421 198.500 C 1829.754 233.149, 1814.710 247.208, 1798 255.899 C 1775.911 267.389, 1759.842 267.488, 1720.235 256.378 C 1656.528 238.508, 1635.046 234.954, 1590.521 234.912 C 1553.828 234.878, 1527.487 238.460, 1497.298 247.590 C 1404.870 275.542, 1340.794 346.349, 1320.014 443.500 C 1315.232 465.860, 1311.724 505.241, 1312.488 528 C 1314.467 586.927, 1316.174 606.700, 1321.641 634 C 1331.741 684.437, 1349.517 737.047, 1371.478 781.500 C 1407.314 854.037, 1457.359 915.869, 1522.165 967.677 C 1625.876 1050.587, 1748.355 1094.115, 1863.497 1088.983 C 1971.065 1084.188, 2065.002 1060.410, 2156.310 1014.863 C 2256.689 964.792, 2343.095 891.407, 2408.246 800.892 C 2490.704 686.332, 2530.409 552.297, 2513.914 444.175 C 2500.667 357.338, 2451.909 288.834, 2377.500 252.517 C 2369.250 248.490, 2358.633 243.751, 2353.907 241.985 L 2345.313 238.775 2341.442 229.737 C 2324.886 191.081, 2295.596 152.142, 2264.497 127.444 C 2227.068 97.718, 2185.498 80.728, 2132.322 73.423 C 2115.878 71.164, 2075.537 70.717, 2058.506 72.605 M 1195 302.631 C 1188.338 303.250, 1167.845 306.029, 1165.250 306.665 L 1163 307.217 1163 382.608 C 1163 424.074, 1162.654 458, 1162.232 458 C 1161.809 458, 1156.522 456.876, 1150.482 455.502 C 1125.305 449.776, 1113.749 448.602, 1082 448.549 C 1055.551 448.505, 1051.207 448.734, 1040 450.767 C 946.078 467.802, 883.803 534.335, 870.366 632.001 C 868.268 647.248, 867.988 684.662, 869.861 699.500 C 873.441 727.864, 880.381 751.565, 891.666 773.963 C 901.287 793.059, 909.771 804.778, 924.996 820.003 C 943.422 838.429, 962.684 851.208, 986.765 860.985 C 1055.094 888.726, 1146.678 885.575, 1223.952 852.825 C 1233.864 848.624, 1256.605 837.292, 1265.770 831.987 L 1271.039 828.937 1270.762 585.219 C 1270.503 357.109, 1270.374 341.130, 1268.747 335.720 C 1266.279 327.509, 1263.465 322.412, 1258.431 317.030 C 1249.191 307.152, 1236.555 303.029, 1214 302.532 C 1206.025 302.357, 1197.475 302.401, 1195 302.631 M 2022 448.589 C 2020.075 448.810, 2014.225 449.479, 2009 450.076 C 1948.095 457.031, 1901.223 486.137, 1884.373 527.465 C 1878.358 542.221, 1876.881 549.748, 1876.289 568.669 C 1875.867 582.167, 1876.117 588.020, 1877.459 596.045 C 1884.412 637.629, 1907.906 663.989, 1954.039 681.967 C 1967.859 687.353, 1979.919 690.788, 2017.021 699.904 C 2034.907 704.299, 2053.582 709.319, 2058.521 711.061 C 2079.104 718.318, 2090.539 726.556, 2095.916 738 C 2098.156 742.767, 2098.500 744.832, 2098.500 753.500 C 2098.500 762.602, 2098.234 764.025, 2095.536 769.350 C 2091.927 776.473, 2084.599 783.317, 2076.500 787.130 C 2036.109 806.144, 1953.022 791.699, 1908.367 757.899 C 1900.615 752.032, 1901.453 751.797, 1890.119 763.019 C 1880.977 772.072, 1874.031 782.573, 1871.046 791.858 C 1869.154 797.743, 1868.830 800.562, 1869.167 808.233 C 1869.510 816.051, 1870.072 818.565, 1872.763 824.312 C 1876.400 832.079, 1885.427 842.140, 1894 847.982 C 1922.614 867.481, 1973.623 879.133, 2030.500 879.161 C 2095.541 879.194, 2143.417 863.953, 2173.563 833.620 C 2184.060 823.057, 2190.813 813.278, 2196.138 800.927 C 2209.750 769.353, 2209.275 726.957, 2194.955 695.262 C 2190.619 685.665, 2182.712 674.969, 2173.171 665.794 C 2150.956 644.431, 2124.852 632.993, 2066.500 619.055 C 2017.247 607.291, 2000.926 601.406, 1990.974 591.821 C 1984.098 585.200, 1982.500 581.179, 1982.500 570.500 C 1982.500 562.412, 1982.798 560.962, 1985.438 556.196 C 1991.182 545.828, 2002.376 538.902, 2020 534.814 C 2028.190 532.915, 2032.464 532.606, 2051 532.574 C 2069.187 532.543, 2074.503 532.895, 2085.500 534.855 C 2116.459 540.375, 2149.838 551.340, 2161.963 559.974 L 2164.899 562.065 2168.975 557.643 C 2178.475 547.337, 2186.533 534.188, 2189.664 523.886 C 2192.004 516.185, 2191.777 504.812, 2189.147 498 C 2181.805 478.980, 2157.219 463.774, 2120.421 455.495 C 2098.826 450.636, 2081.960 448.907, 2052.500 448.531 C 2037.650 448.341, 2023.925 448.367, 2022 448.589 M 486 455.677 C 478.947 456.818, 469.361 459.271, 462.822 461.609 C 453.173 465.058, 433.999 474.857, 434.005 476.336 C 434.008 476.976, 435.830 484.475, 438.054 493 C 469.008 611.631, 516.778 729.017, 580.184 842.258 L 590.127 860.016 584.371 868.258 C 555.210 910.013, 523.830 945.479, 494.500 969.830 C 489.550 973.939, 485.340 977.714, 485.144 978.218 C 484.949 978.722, 486.014 982.592, 487.512 986.817 C 505.322 1037.058, 544.229 1049.874, 588.418 1020.055 C 624.347 995.811, 665.160 945.281, 703.487 877.593 C 741.111 811.144, 796.696 676.116, 820.873 592.438 C 835.201 542.849, 840.793 506.404, 836.591 490 C 830.795 467.378, 809.162 455, 775.420 455 C 763.002 455, 736.178 458.386, 734.528 460.163 C 734.356 460.348, 732.781 469.050, 731.029 479.500 C 715.044 574.833, 689.209 663.011, 653.716 743.377 L 647.587 757.254 645.706 752.877 C 644.671 750.470, 638.399 735.225, 631.768 719 C 601.932 645.992, 582.613 592.234, 559.097 516.777 C 554.174 500.979, 548.650 485.234, 546.823 481.790 C 539.998 468.925, 527.412 459.656, 512.500 456.511 C 506.058 455.152, 491.981 454.709, 486 455.677 M 1449.132 456.008 C 1444.529 456.491, 1435.841 457.645, 1429.823 458.572 L 1418.883 460.256 1419.283 587.878 C 1419.633 699.843, 1419.887 717.023, 1421.349 727.915 C 1427.249 771.862, 1441.176 804.320, 1464.774 829.117 C 1476.636 841.582, 1487.970 849.819, 1504.500 857.988 C 1531.047 871.107, 1555.688 876.958, 1592.813 878.958 C 1641.106 881.560, 1695.166 872.877, 1742.393 854.932 C 1756.266 849.660, 1783.817 836.666, 1791.785 831.636 L 1796 828.975 1796 662.537 C 1796 544.007, 1795.679 494.573, 1794.885 490.799 C 1788.285 459.418, 1758.065 449.367, 1698.253 458.658 L 1688.006 460.250 1687.753 618.742 L 1687.500 777.235 1682.580 779.168 C 1675.457 781.966, 1656.965 786.553, 1644.383 788.643 C 1628.722 791.245, 1600.054 791.048, 1587 788.249 C 1574.547 785.580, 1567.778 782.938, 1559.934 777.687 C 1545.178 767.808, 1536.012 750.765, 1530.793 723.500 C 1528.759 712.880, 1528.664 708.739, 1528.044 603.500 C 1527.458 504.210, 1527.247 493.972, 1525.668 488.575 C 1520.763 471.810, 1510.837 462.721, 1492.154 457.890 C 1483.200 455.574, 1462.069 454.650, 1449.132 456.008 M 91 461.814 C 69.151 467.525, 58.781 484.934, 60.314 513.325 C 60.891 524.025, 63.524 537.668, 66.105 543.331 L 67.321 546 164.210 546 C 246.228 546, 260.977 546.211, 260.300 547.378 C 259.638 548.518, 210.526 606.520, 89.580 749 C 73.439 768.014, 67.144 777.282, 62.077 789.491 C 51.563 814.825, 54.890 843.049, 70.657 862.283 L 75.398 868.066 215.449 867.761 C 346.146 867.477, 355.901 867.338, 361.500 865.681 C 384.092 858.996, 394.149 846.886, 397.072 822.848 C 398.180 813.735, 397.286 799.096, 394.867 786.755 L 393.742 781.009 291.527 780.755 L 189.313 780.500 218.258 746.500 C 234.178 727.800, 273.595 681.496, 305.852 643.603 C 338.108 605.709, 367.096 571.284, 370.269 567.103 C 377.185 557.990, 385.129 542.316, 388.061 532 C 389.521 526.863, 390.359 520.390, 390.720 511.457 C 391.170 500.323, 390.937 497.175, 389.128 489.957 C 386.728 480.376, 381.591 469.298, 376.975 463.750 L 373.854 460 235.677 460.058 C 108.992 460.110, 96.959 460.257, 91 461.814 M 1073 537.442 C 1029.932 545.351, 998.944 575.986, 986.962 622.500 C 982.387 640.256, 981.518 647.882, 981.604 669.500 C 981.713 697.032, 984.921 715.264, 992.968 734.095 C 1009.178 772.029, 1042.417 791.025, 1092.500 790.978 C 1114.516 790.957, 1138.107 786.995, 1156.239 780.274 L 1163 777.768 1163 663.919 C 1163 554.536, 1162.928 550.032, 1161.166 549.089 C 1157.272 547.005, 1135.390 540.912, 1124.706 538.937 C 1110.175 536.251, 1083.662 535.484, 1073 537.442 M 606.446 1199.483 C 600.059 1202.689, 596.790 1207.485, 596.208 1214.503 C 595.288 1225.604, 602.625 1233.984, 613.984 1234.805 C 621.580 1235.355, 626.078 1233.763, 630.378 1229.004 C 634.285 1224.679, 635.478 1220.330, 634.773 1212.986 C 633.532 1200.079, 619.031 1193.166, 606.446 1199.483 M 2049.007 1198.593 C 2041.431 1201.879, 2037.680 1207.679, 2037.672 1216.122 C 2037.662 1226.514, 2044.679 1234.060, 2055.050 1234.810 C 2066.643 1235.649, 2075.033 1229.633, 2076.570 1219.379 C 2078.890 1203.913, 2063.501 1192.308, 2049.007 1198.593 M 2166.152 1197.976 C 2146.229 1200.242, 2131.352 1209.352, 2124.116 1223.719 C 2119.109 1233.660, 2119.043 1234.889, 2118.998 1319.756 C 2118.950 1407.727, 2118.601 1403.159, 2125.625 1406.492 C 2129.601 1408.379, 2141.771 1408.764, 2147.500 1407.184 L 2150.500 1406.356 2150.758 1351.178 L 2151.017 1296 2176.859 1296 C 2205.171 1296, 2208.152 1295.541, 2210.602 1290.803 C 2212.471 1287.189, 2212.609 1278.326, 2210.871 1273.519 L 2209.598 1270 2179.669 1270 L 2149.739 1270 2150.281 1256.750 C 2150.580 1249.463, 2151.365 1241.701, 2152.027 1239.503 C 2153.849 1233.453, 2160.347 1227.536, 2167.435 1225.476 C 2176.112 1222.954, 2193.751 1223.824, 2204.390 1227.299 L 2212.280 1229.876 2214.107 1227.688 C 2218.512 1222.415, 2219.040 1213.235, 2215.235 1208.087 C 2212.708 1204.669, 2206.777 1201.437, 2199.595 1199.567 C 2192.284 1197.662, 2175.804 1196.879, 2166.152 1197.976 M 526.250 1203.262 L 522 1204.284 522 1233.749 C 522 1261.402, 521.892 1263.172, 520.250 1262.538 C 507.245 1257.513, 494.380 1255.860, 479.244 1257.268 C 449.476 1260.038, 427.940 1278.300, 419.780 1307.692 C 417.928 1314.365, 417.606 1318.189, 417.565 1334 C 417.509 1355.577, 418.435 1360.273, 425.633 1374.929 C 434.098 1392.163, 448.278 1402.909, 469.500 1408.171 C 481.314 1411.100, 507.659 1411.405, 518.237 1408.735 C 535.131 1404.471, 548.124 1397.355, 552.444 1390 C 554.469 1386.552, 554.504 1385.220, 554.780 1300.500 C 555.099 1202.875, 555.439 1207.465, 547.628 1203.918 C 543.034 1201.832, 533.424 1201.537, 526.250 1203.262 M 1366.250 1203.108 C 1363.912 1203.663, 1361.999 1204.429, 1361.998 1204.809 C 1361.870 1247.457, 1361.717 1261.632, 1361.377 1262.189 C 1361.146 1262.568, 1358.380 1261.986, 1355.229 1260.897 C 1345.775 1257.627, 1341.332 1256.944, 1329.137 1256.883 C 1314.526 1256.810, 1305.429 1258.763, 1293.315 1264.575 C 1275.229 1273.251, 1263.159 1289.826, 1258.559 1312.300 C 1256.439 1322.654, 1256.341 1346.075, 1258.377 1355.500 C 1261.684 1370.810, 1266.883 1380.864, 1276.500 1390.550 C 1287.542 1401.671, 1300.854 1407.578, 1320.426 1410.042 C 1340.129 1412.522, 1360.506 1409.756, 1375.756 1402.531 C 1385.159 1398.076, 1389.670 1394.568, 1392.086 1389.831 C 1393.982 1386.115, 1394.041 1383.362, 1394.028 1298.335 C 1394.013 1202.740, 1394.342 1208.236, 1388.402 1204.344 C 1385.307 1202.316, 1372.576 1201.605, 1366.250 1203.108 M 106.500 1214.102 C 80.188 1215.159, 64.365 1219.490, 61.465 1226.428 C 60.219 1229.411, 60 1241.981, 60 1310.403 C 60 1364.825, 60.344 1391.781, 61.064 1393.685 C 65.105 1404.382, 79.546 1408.737, 114.100 1409.681 C 137.917 1410.331, 149.211 1409.133, 163.640 1404.423 C 200.408 1392.420, 220.678 1363.603, 223.517 1319.295 C 224.928 1297.282, 220.967 1276.381, 212.186 1259.500 C 206.283 1248.152, 192.161 1233.407, 182 1227.980 C 159.909 1216.181, 141.052 1212.715, 106.500 1214.102 M 1892.750 1216.276 L 1887 1217.227 1887.016 1305.864 L 1887.033 1394.500 1889.266 1398.425 C 1890.659 1400.872, 1893.160 1403.226, 1895.907 1404.675 L 1900.315 1407 1949.907 1406.985 C 1987.277 1406.974, 2000.092 1406.666, 2001.904 1405.735 C 2008.201 1402.499, 2010.594 1393.314, 2007.536 1384.109 L 2005.839 1379 1963.420 1379 L 1921 1379 1920.918 1304.750 C 1920.873 1263.912, 1920.618 1229.150, 1920.351 1227.500 C 1919.587 1222.769, 1917.746 1219.744, 1914.469 1217.836 C 1910.786 1215.692, 1900.676 1214.966, 1892.750 1216.276 M 991.707 1219.283 L 986.913 1220.500 986.956 1298.891 C 986.986 1352.710, 987.344 1378.566, 988.101 1381.375 C 992.971 1399.461, 1008.077 1409.304, 1033.098 1410.695 C 1046.336 1411.430, 1055.101 1409.905, 1062.133 1405.641 C 1070.879 1400.338, 1073.228 1392.528, 1068.669 1383.907 C 1067.388 1381.483, 1065.925 1379.520, 1065.419 1379.543 C 1064.914 1379.567, 1061.206 1380.633, 1057.179 1381.912 C 1051.178 1383.819, 1048.290 1384.163, 1041.162 1383.822 C 1030.022 1383.289, 1024.562 1380.607, 1021.250 1374.038 C 1019.029 1369.634, 1019 1369.061, 1019 1329.788 L 1019 1290 1040.550 1290 C 1063.670 1290, 1066.613 1289.460, 1069.132 1284.753 C 1070.719 1281.788, 1070.714 1272.419, 1069.123 1267.750 L 1067.845 1264 1043.422 1264 L 1019 1264 1019 1246.468 C 1019 1226.697, 1018.188 1223.183, 1013.004 1220.502 C 1008.895 1218.377, 997.781 1217.741, 991.707 1219.283 M 1489.840 1220.851 C 1487.046 1223.348, 1486.593 1224.472, 1486.202 1229.886 C 1485.889 1234.210, 1486.266 1237.407, 1487.454 1240.519 L 1489.153 1244.969 1516.827 1245.234 L 1544.500 1245.500 1544.733 1322.266 C 1544.991 1407.551, 1544.678 1403.714, 1551.620 1406.615 C 1555.794 1408.359, 1568.091 1408.591, 1573.868 1407.036 L 1578 1405.923 1578 1325.461 L 1578 1245 1602.935 1245 C 1616.649 1245, 1629.001 1244.570, 1630.383 1244.045 C 1634.586 1242.446, 1636.495 1238.388, 1636.498 1231.047 C 1636.499 1227.446, 1635.883 1223.037, 1635.129 1221.250 L 1633.757 1218 1563.394 1218 L 1493.032 1218 1489.840 1220.851 M 106 1241.596 C 104.075 1241.822, 100.584 1242.259, 98.243 1242.566 L 93.986 1243.125 94.243 1311.771 L 94.500 1380.418 98 1381.153 C 99.925 1381.558, 106.675 1382.188, 113 1382.555 C 147.129 1384.532, 170.533 1373.620, 181.397 1350.667 C 186.563 1339.752, 188.107 1332.319, 188.714 1315.436 C 189.402 1296.315, 187.823 1287.322, 181.509 1274.401 C 177.926 1267.069, 175.705 1264.020, 170.074 1258.709 C 162.294 1251.369, 152.499 1246.068, 141.985 1243.507 C 135.678 1241.970, 113.045 1240.768, 106 1241.596 M 734.235 1257.189 C 701.010 1260.863, 677.421 1281.895, 670.824 1313.729 C 668.142 1326.671, 668.688 1348.549, 671.978 1359.973 C 677.662 1379.709, 689.444 1394.327, 706.112 1402.326 C 717.267 1407.679, 726.732 1409.951, 741.075 1410.717 C 763.823 1411.931, 783.621 1405.821, 789.910 1395.646 C 793.876 1389.229, 791.873 1379.584, 785.739 1375.565 C 783.530 1374.117, 782.940 1374.243, 776.224 1377.593 C 766.475 1382.456, 760.121 1383.974, 749.460 1383.988 C 725.082 1384.020, 709.399 1372.321, 703.899 1350 C 703.116 1346.826, 702.583 1339.637, 702.636 1333 C 702.742 1319.992, 705.134 1311.142, 711.025 1301.961 C 723.172 1283.032, 749.411 1277.684, 774.026 1289.121 L 783.059 1293.318 786.046 1290.456 C 792.445 1284.325, 792.007 1274.949, 785.026 1268.643 C 774.527 1259.158, 755.415 1254.848, 734.235 1257.189 M 872.500 1256.740 C 859.799 1257.503, 845.181 1260.927, 836.905 1265.079 C 834.928 1266.071, 831.842 1268.555, 830.047 1270.600 C 827.004 1274.065, 826.811 1274.713, 827.204 1280.143 C 827.542 1284.822, 828.236 1286.711, 830.728 1289.735 C 832.435 1291.806, 834.207 1293.396, 834.666 1293.270 C 835.125 1293.143, 839.755 1291.412, 844.954 1289.423 C 857.613 1284.582, 866.501 1282.823, 878.500 1282.788 C 886.087 1282.765, 890.143 1283.284, 895.308 1284.937 C 907.090 1288.708, 912 1295.733, 912 1308.821 L 912 1314.909 908.750 1315.460 C 906.962 1315.763, 896.275 1316.911, 885 1318.010 C 873.725 1319.110, 861.125 1320.731, 857 1321.614 C 829.587 1327.478, 817.062 1342.105, 818.232 1366.887 C 819.076 1384.752, 825.914 1395.432, 841.352 1402.997 C 854.785 1409.579, 859.720 1410.490, 882 1410.492 C 899.245 1410.495, 902.541 1410.223, 910.500 1408.147 C 923.539 1404.746, 934.625 1399.285, 939.664 1393.781 C 943.105 1390.021, 943.944 1388.293, 944.504 1383.812 C 945.615 1374.921, 944.422 1298.103, 943.095 1293.115 C 941.115 1285.670, 936.717 1277.826, 931.713 1272.815 C 926.582 1267.676, 914.309 1261.191, 905.500 1258.963 C 900.444 1257.685, 879.863 1256.298, 872.500 1256.740 M 1158 1257.110 C 1136.023 1258.385, 1118.784 1267.445, 1106.428 1284.211 C 1101.343 1291.111, 1096.539 1302.308, 1094.496 1312.020 C 1092.416 1321.907, 1092.431 1343.320, 1094.525 1353.507 C 1100.308 1381.638, 1119.194 1401.123, 1147.500 1408.160 C 1159.816 1411.221, 1184.749 1411.449, 1196 1408.603 C 1214.704 1403.871, 1225 1395.863, 1225 1386.049 C 1225 1382.093, 1222.584 1377.136, 1219.313 1374.382 L 1216.797 1372.263 1208.131 1376.595 C 1195.602 1382.858, 1184.131 1385.385, 1171.500 1384.663 C 1151.441 1383.518, 1138.526 1376.789, 1131.120 1363.624 C 1128.273 1358.562, 1125.472 1351.182, 1126.150 1350.529 C 1126.343 1350.344, 1147.409 1347.190, 1172.965 1343.520 C 1198.521 1339.850, 1220.796 1336.265, 1222.465 1335.553 C 1224.134 1334.840, 1226.623 1333.040, 1227.996 1331.553 C 1230.120 1329.251, 1230.542 1327.702, 1230.826 1321.174 C 1231.877 1297.058, 1218.408 1274.094, 1197.234 1263.900 C 1184.646 1257.839, 1174.798 1256.134, 1158 1257.110 M 1701.906 1257.152 C 1676.988 1259.617, 1656.695 1273.206, 1646.668 1294.142 C 1640.711 1306.579, 1638.972 1313.936, 1638.312 1329.500 C 1636.850 1363.952, 1650.148 1390.140, 1675.392 1402.521 C 1687.206 1408.316, 1693.944 1409.998, 1708 1410.664 C 1743.400 1412.340, 1770.148 1395.043, 1781.020 1363.443 C 1784.095 1354.505, 1785.198 1346.345, 1785.136 1333 C 1785.055 1315.478, 1782.626 1304.788, 1775.704 1291.500 C 1771.021 1282.510, 1757.449 1269.379, 1748 1264.695 C 1734.701 1258.102, 1718.727 1255.488, 1701.906 1257.152 M 2292 1256.769 C 2284.761 1257.327, 2274.224 1260.346, 2266.195 1264.163 C 2248.029 1272.798, 2234.947 1290.380, 2230.363 1312.322 C 2228.082 1323.235, 2228.389 1344.732, 2230.982 1355.702 C 2237.370 1382.733, 2255.996 1401.456, 2283 1407.992 C 2313.746 1415.434, 2351.614 1407.757, 2358.955 1392.594 C 2360.080 1390.270, 2361 1387.395, 2361 1386.205 C 2361 1382.380, 2357.856 1376.034, 2354.928 1373.948 L 2352.083 1371.923 2348.161 1374.398 C 2333.860 1383.426, 2313.365 1387.055, 2296.665 1383.517 C 2279.586 1379.898, 2268.485 1370.584, 2263.375 1355.586 C 2262.495 1353.004, 2261.941 1350.726, 2262.144 1350.523 C 2262.347 1350.320, 2283.435 1347.168, 2309.006 1343.520 C 2357.468 1336.605, 2360.490 1335.904, 2364.397 1330.671 C 2367.187 1326.933, 2367.650 1317.330, 2365.543 1306.847 C 2360.779 1283.141, 2344.062 1265.665, 2319.791 1259.020 C 2313.027 1257.169, 2300.254 1256.134, 2292 1256.769 M 304.500 1258.964 C 290.437 1262.688, 279.234 1269.375, 270.535 1279.237 C 265.208 1285.277, 257.749 1299.717, 255.421 1308.500 C 252.915 1317.954, 252.408 1340.617, 254.459 1351.500 C 258.926 1375.208, 271.661 1392.619, 291.500 1402.140 C 305.267 1408.748, 312.985 1410.300, 332.500 1410.387 C 347.188 1410.453, 350.635 1410.155, 357.846 1408.200 C 371.145 1404.593, 380.327 1399.136, 383.536 1392.931 C 386.653 1386.903, 384.793 1378.343, 379.455 1374.143 L 376.870 1372.110 370.685 1375.492 C 356.441 1383.283, 339.297 1386.467, 324.252 1384.115 C 305.888 1381.245, 293.910 1372.066, 288.033 1356.358 C 286.876 1353.266, 286.058 1350.620, 286.215 1350.478 C 286.372 1350.336, 307.425 1347.216, 333 1343.546 C 382.854 1336.391, 386.673 1335.466, 389.577 1329.851 C 390.585 1327.902, 391.100 1324.076, 391.100 1318.540 C 391.100 1289.974, 372.351 1266.123, 344.244 1258.935 C 334.012 1256.318, 314.438 1256.332, 304.500 1258.964 M 605 1260.288 L 599.500 1261.500 599.500 1330.545 C 599.500 1407.997, 599.062 1403.449, 606.828 1406.708 C 610.840 1408.392, 623.428 1408.691, 628.500 1407.224 L 631.500 1406.356 631.757 1337.642 C 632.040 1261.794, 632.272 1264.743, 625.778 1261.385 C 621.663 1259.257, 611.991 1258.746, 605 1260.288 M 2046.500 1260.294 L 2041.500 1261.514 2041.243 1329.841 C 2040.956 1406.228, 2040.697 1403.209, 2047.803 1406.409 C 2052.283 1408.427, 2065.098 1408.783, 2070.391 1407.036 L 2074.065 1405.823 2073.783 1336.984 C 2073.503 1268.947, 2073.476 1268.112, 2071.410 1265.323 C 2070.261 1263.770, 2068.055 1261.880, 2066.508 1261.123 C 2062.658 1259.237, 2052.548 1258.818, 2046.500 1260.294 M 311.909 1283.832 C 301.128 1287.405, 293.787 1293.992, 288.877 1304.500 C 286.378 1309.847, 283.157 1324.490, 284.241 1325.574 C 284.646 1325.980, 353.068 1316.575, 357.875 1315.453 C 359.994 1314.959, 360.194 1314.481, 359.729 1311.017 C 358.390 1301.036, 350.343 1289.783, 341.424 1285.419 C 333.994 1281.784, 320.309 1281.048, 311.909 1283.832 M 1152.929 1283.367 C 1139.030 1287.115, 1128.494 1299.028, 1125.130 1314.799 C 1123.832 1320.886, 1123.657 1326.015, 1124.750 1325.968 C 1128.757 1325.794, 1199.147 1315.186, 1199.655 1314.679 C 1200.919 1313.414, 1196.918 1301.715, 1193.417 1296.441 C 1189.005 1289.794, 1184.893 1286.659, 1177.176 1284.059 C 1170.226 1281.718, 1160.117 1281.429, 1152.929 1283.367 M 2288.500 1283.346 C 2278.343 1286.709, 2269.598 1293.986, 2265.088 1302.827 C 2262.408 1308.080, 2260 1317.307, 2260 1322.321 C 2260 1326.173, 2260.041 1326.215, 2263.250 1325.653 C 2265.037 1325.339, 2281.125 1323.031, 2299 1320.523 C 2316.875 1318.015, 2332.559 1315.726, 2333.853 1315.436 C 2335.968 1314.964, 2336.138 1314.535, 2335.534 1311.205 C 2334.600 1306.049, 2330.614 1297.563, 2326.960 1292.949 C 2325.067 1290.560, 2321.355 1287.823, 2317.295 1285.825 C 2311.555 1282.999, 2309.527 1282.543, 2301.602 1282.300 C 2295.982 1282.128, 2290.970 1282.528, 2288.500 1283.346 M 481.734 1284.088 C 468.110 1287.298, 458.845 1296.619, 453.387 1312.609 C 451.027 1319.524, 450.685 1322.108, 450.627 1333.500 C 450.529 1352.769, 453.374 1362.286, 461.939 1371.342 C 470.292 1380.174, 480.376 1383.972, 495.500 1383.983 C 504.938 1383.989, 509.387 1383.129, 517.250 1379.778 L 522 1377.754 522 1334.492 L 522 1291.230 519.550 1289.625 C 518.203 1288.742, 513.736 1286.890, 509.624 1285.510 C 501.686 1282.845, 489.620 1282.230, 481.734 1284.088 M 1320.024 1284.603 C 1306.216 1288.314, 1297.462 1297.789, 1292.363 1314.543 C 1289.563 1323.743, 1289.751 1346.119, 1292.707 1355.514 C 1298.504 1373.937, 1310.901 1382.802, 1332.217 1383.768 C 1343.493 1384.280, 1348.777 1383.442, 1357.237 1379.803 L 1362 1377.754 1362 1334.394 L 1362 1291.034 1357.017 1288.509 C 1346.281 1283.068, 1331.531 1281.511, 1320.024 1284.603 M 1697.733 1285.112 C 1686.317 1289.202, 1676.924 1300.953, 1673.363 1315.603 C 1671.116 1324.847, 1671.115 1342.157, 1673.363 1352.126 C 1675.125 1359.946, 1679.850 1369.103, 1684.808 1374.306 C 1686.278 1375.849, 1690.401 1378.549, 1693.969 1380.306 C 1700.128 1383.338, 1701.043 1383.500, 1711.979 1383.500 C 1722.535 1383.500, 1723.971 1383.269, 1729.125 1380.738 C 1735.996 1377.363, 1743.303 1369.763, 1746.600 1362.562 C 1753.914 1346.586, 1753.709 1320.503, 1746.143 1304.588 C 1742.005 1295.884, 1737.016 1290.625, 1729.287 1286.820 C 1723.397 1283.921, 1721.590 1283.528, 1713.079 1283.302 C 1705.460 1283.099, 1702.320 1283.469, 1697.733 1285.112 M 899.500 1340.673 C 897.850 1340.878, 890.650 1341.696, 883.500 1342.490 C 876.350 1343.284, 868.111 1344.649, 865.190 1345.523 C 852.390 1349.355, 846.609 1361.364, 852.102 1372.711 C 856.416 1381.622, 865.531 1385.391, 882.500 1385.282 C 893.508 1385.212, 903.385 1383.404, 909.206 1380.394 L 912 1378.949 912 1359.474 L 912 1340 907.250 1340.150 C 904.638 1340.232, 901.150 1340.468, 899.500 1340.673" stroke="none" fill="None" fill-rule="evenodd"/></svg>